<?xml version="1.0" encoding="UTF-8"?>
<svg version="1.1" xmlns="http://www.w3.org/2000/svg" width="3375" height="3375">
<path d="M0 0 C13.07912511 12.27916594 23.00562064 26.07573245 23.953125 44.515625 C23.97414845 45.9478476 23.98967683 47.38016031 24 48.8125 C24.0309375 49.86244141 24.0309375 49.86244141 24.0625 50.93359375 C24.13836855 61.34655178 19.72167391 70.21778159 15.3125 79.4375 C3.98851576 103.12464652 1.53892734 124.0763233 10.2578125 149.015625 C14.07300948 159.22428413 19.16599335 169.07460362 27.01953125 176.79296875 C28.75 178.5625 28.75 178.5625 28.75 180.5625 C29.45898438 180.81128906 30.16796875 181.06007813 30.8984375 181.31640625 C58.40836623 193.33786826 76.61041411 228.37186503 90.38476562 253.12573242 C91.52522454 255.16130475 92.67693781 257.18941681 93.83532715 259.21479797 C94.46716919 260.31953964 95.09901123 261.42428131 95.75 262.5625 C95.74333817 261.53678894 95.73667633 260.51107788 95.72981262 259.45428467 C95.66875983 249.74540169 95.62391197 240.03655812 95.59456348 230.32752609 C95.57896746 225.33708387 95.55784106 220.34679773 95.52368164 215.35644531 C95.49087055 210.53238662 95.47310149 205.70847723 95.46536827 200.88431549 C95.45986355 199.05209252 95.44911515 197.21987689 95.43280983 195.3877182 C95.21333644 169.6831625 95.21333644 169.6831625 102.75 159.5625 C106.07732777 157.24783721 107.8237525 156.50692515 111.875 156.75 C117.97691482 158.47445419 117.97691482 158.47445419 120.4375 161.9375 C122.45911728 165.98073457 122.89150709 169.486968 123.06640625 173.984375 C123.10830078 175.00917969 123.15019531 176.03398438 123.19335938 177.08984375 C123.23267578 178.15332031 123.27199219 179.21679688 123.3125 180.3125 C123.37727539 181.93091797 123.37727539 181.93091797 123.44335938 183.58203125 C123.54928989 186.24206428 123.65136421 188.90218812 123.75 191.5625 C127.05329116 189.66339532 129.96771624 187.64420841 132.875 185.1875 C144.20755295 176.03106505 156.57896562 168.18339847 168.9375 160.5 C169.79770752 159.96415283 170.65791504 159.42830566 171.54418945 158.8762207 C187.34879187 149.15874508 187.34879187 149.15874508 195.75 149.5625 C199.08708614 150.71531158 200.99043598 151.56125652 203.125 154.375 C204.17690375 158.05666313 204.50823706 160.90047145 202.875 164.48046875 C199.01000503 171.05350296 193.83142962 176.04834391 187.75 180.5625 C188.35884033 180.58231934 188.96768066 180.60213867 189.5949707 180.62255859 C219.90533866 181.66052598 219.90533866 181.66052598 225.75 186.5625 C228.76617129 191.53281044 228.1976209 196.93272719 227.25 202.5 C226.78163551 205.36873247 226.84529062 207.67888903 227 210.5625 C227.04366024 214.18084227 226.76410658 216.26035296 224.5 219.125 C220.88367876 222.33037565 220.88367876 222.33037565 217.75 222.5625 C217.729375 223.42875 217.70875 224.295 217.6875 225.1875 C216.34303908 230.0275593 214.01573003 232.02475213 209.75 234.5625 C203.04388019 237.3550484 195.90465984 238.76411136 188.84448242 240.36450195 C173.18160061 243.5573925 173.18160061 243.5573925 161.03173828 253.28833008 C156.43194726 261.44967358 156.22791709 271.85549632 156.3125 281 C156.31862305 282.18319824 156.32474609 283.36639648 156.33105469 284.58544922 C156.66110544 304.39103333 159.41868629 324.11091839 161.90625 343.73828125 C168.54702948 396.40338688 168.54702948 396.40338688 156.75 414.5625 C151.19895805 421.62005945 144.08018756 425.62979635 135.29296875 427.30859375 C122.05653125 428.63020425 110.09833307 424.71573211 99.75 416.5625 C93.19215084 411.02641204 87.16898892 405.21257768 81.75 398.5625 C81.32638184 398.05122559 80.90276367 397.53995117 80.46630859 397.01318359 C72.65061319 387.56731913 65.5115895 377.78575295 58.75 367.5625 C58.28706543 366.86334473 57.82413086 366.16418945 57.34716797 365.44384766 C52.31914385 357.82105047 47.41643115 350.12463226 42.6875 342.3125 C42.31737793 341.70462646 41.94725586 341.09675293 41.56591797 340.47045898 C39.64236516 337.25504195 38.02829261 334.08608378 36.75 330.5625 C36.09 330.5625 35.43 330.5625 34.75 330.5625 C34.35941406 331.59890625 34.35941406 331.59890625 33.9609375 332.65625 C32.60874278 335.90151733 31.00970982 338.95012672 29.375 342.0625 C21.47333476 357.58940528 19.32581298 373.59005517 19.375 390.875 C19.37531723 391.9132341 19.37531723 391.9132341 19.37564087 392.97244263 C19.41537578 406.11226884 20.78564714 418.74828744 23.75 431.5625 C23.92128418 432.3035498 24.09256836 433.04459961 24.26904297 433.80810547 C26.76891224 444.10775898 30.75894456 453.86064298 34.61938477 463.70898438 C39.92443902 477.36947509 44.44324895 491.27933285 48.99414062 505.20507812 C50.55731414 509.9835417 52.13843801 514.75592403 53.72236633 519.52754211 C61.44552809 542.80479085 68.9547466 566.13282133 76 589.625 C76.30837799 590.65087219 76.61675598 591.67674438 76.93447876 592.73370361 C77.82026889 595.68701323 78.70048275 598.64191601 79.578125 601.59765625 C79.82642563 602.42812973 80.07472626 603.25860321 80.33055115 604.11424255 C82.12137344 610.19062029 83.74920092 616.30527027 85.35467529 622.43260193 C85.58559561 623.31209613 85.81651592 624.19159034 86.05443382 625.09773588 C86.62012064 627.25252709 87.18529586 629.40745109 87.75 631.5625 C88.87037124 631.56581015 89.99074247 631.56912029 91.14506435 631.57253075 C118.41203881 631.65354164 145.67895713 631.74586237 172.94585323 631.85002708 C186.1319405 631.90013888 199.31802159 631.94658203 212.50415039 631.984375 C223.99779612 632.01732644 235.49139374 632.05717519 246.98498636 632.10529006 C253.07016289 632.13052359 259.15530764 632.15231425 265.24052238 632.16584396 C270.97044297 632.17869274 276.70025439 632.20077771 282.43011475 632.22988319 C284.53070964 632.23893692 286.63132211 632.24464405 288.7319355 632.24671364 C291.6059543 632.25005174 294.47966652 632.26557108 297.35362244 632.2840271 C298.17952454 632.28209237 299.00542664 632.28015763 299.85635608 632.27816427 C310.53792322 632.38029655 319.47663569 634.94736878 327.57421875 642.1953125 C333.45041765 648.55996119 336.88629926 656.76878104 336.86352539 665.42285156 C336.86344986 666.38354553 336.86337433 667.3442395 336.86329651 668.33404541 C336.85813522 669.36334167 336.85297394 670.39263794 336.84765625 671.453125 C336.8462413 672.51287537 336.84482635 673.57262573 336.84336853 674.66448975 C336.83777382 678.04718862 336.82522225 681.42982115 336.8125 684.8125 C336.80748432 687.10676988 336.80292153 689.40104079 336.79882812 691.6953125 C336.78780611 697.31773387 336.77054507 702.94010569 336.75 708.5625 C340.05 708.5625 343.35 708.5625 346.75 708.5625 C347.02070312 707.71429687 347.29140625 706.86609375 347.5703125 705.9921875 C348.77775072 702.48182074 350.18095499 699.10681901 351.625 695.6875 C363.53019804 666.64785409 361.81858688 637.86116196 350.1875 609.1875 C349.70434326 608.04732422 349.22118652 606.90714844 348.72338867 605.73242188 C340.86175586 586.94590053 338.50922559 565.72731854 341.75 545.5625 C342.08 544.9025 342.41 544.2425 342.75 543.5625 C341.53932861 543.80484375 340.32865723 544.0471875 339.08129883 544.296875 C324.59312138 547.15182652 310.05091386 549.45119448 295.4375 551.5625 C294.24422089 551.73547607 293.05094177 551.90845215 291.82150269 552.08666992 C196.41395004 565.84443409 196.41395004 565.84443409 175.43359375 550.9140625 C164.52175981 541.09962363 161.79078233 526.54967104 160.75 512.5625 C159.19387277 479.92253777 176.21579603 443.32587447 191.57739258 415.52319336 C196.4594925 406.67381739 198.46762103 398.7257284 195.6875 388.75 C193.51129481 383.69660045 190.90038315 378.81420768 188.37109375 373.9296875 C184.91652976 366.7541835 183.82616613 360.49207407 184.75 352.5625 C186.625 349.5 186.625 349.5 188.75 346.5625 C189.15073781 344.74271116 189.47781948 342.90590446 189.75 341.0625 C190.51122824 336.1545811 191.48165149 333.31148799 194.75 329.5625 C195.801875 329.0675 195.801875 329.0675 196.875 328.5625 C199.75934265 327.02418392 199.79814558 324.59653595 200.75 321.5625 C204.06034483 316.90732759 204.06034483 316.90732759 206.75 315.5625 C206.72679687 314.83546875 206.70359375 314.1084375 206.6796875 313.359375 C206.46419107 301.35314533 207.0677951 288.59099958 215.78515625 279.421875 C221.31252819 274.48636321 224.57576558 273.11684277 232.0390625 273.234375 C234.75 273.5625 234.75 273.5625 237.9375 275.4375 C240.58654422 280.00481762 240.6251556 283.39841391 239.75 288.5625 C238.54129143 292.43117591 237.21764458 296.17263708 235.74609375 299.94921875 C234.6241975 304.01884241 234.71721789 306.4892846 235.75 310.5625 C240.46298989 318.76339067 249.24858943 323.21956646 257.75 326.5625 C257.7593457 325.76553711 257.76869141 324.96857422 257.77832031 324.14746094 C257.83201498 320.53517825 257.91566608 316.92419179 258 313.3125 C258.02126953 311.43111328 258.02126953 311.43111328 258.04296875 309.51171875 C258.07519531 308.30644531 258.10742188 307.10117188 258.140625 305.859375 C258.16157227 304.74916992 258.18251953 303.63896484 258.20410156 302.49511719 C258.86794379 298.92889498 259.89351889 297.73868249 262.75 295.5625 C266.32810851 294.80559243 268.55471323 294.88046983 271.76953125 296.71484375 C281.16351975 304.06119422 284.89730162 315.57246587 286.375 327 C286.51384958 328.51963148 286.6392179 330.04056493 286.75 331.5625 C286.80414062 332.21347656 286.85828125 332.86445312 286.9140625 333.53515625 C287.64973938 350.89044273 280.65979382 367.74471833 274.87890625 383.74609375 C267.35287412 404.63925758 264.57602608 424.46252047 262.75 446.5625 C262.64993652 447.75665527 262.54987305 448.95081055 262.44677734 450.18115234 C262.21291487 452.97480545 261.98062496 455.76857811 261.75 458.5625 C262.29281616 458.43801483 262.83563232 458.31352966 263.39489746 458.18527222 C309.88580266 447.53408073 309.88580266 447.53408073 328.875 444 C330.08349609 443.7736084 331.29199219 443.5472168 332.53710938 443.31396484 C344.1650254 441.20202905 355.90142346 439.16268623 367.75 439.1875 C368.59030762 439.18911133 369.43061523 439.19072266 370.29638672 439.19238281 C381.17928877 439.40321966 390.70303895 442.62829662 400.65625 446.875 C403.61521087 447.84659909 405.82967419 447.53594194 408.75 446.5625 C410.34119436 444.97130564 409.9977009 443.40431124 410.0625 441.1875 C410.01868252 435.60807403 409.08292162 430.3749307 407.9375 424.9375 C407.7722583 424.15068848 407.6070166 423.36387695 407.43676758 422.55322266 C406.37064567 417.73987037 405.0049452 413.13161959 403.3293457 408.49462891 C402.75 406.5625 402.75 406.5625 402.75 403.5625 C401.92757812 403.40394531 401.10515625 403.24539063 400.2578125 403.08203125 C388.20742718 400.56341723 377.38454883 396.45086837 369.9921875 386.1015625 C360.75265916 371.23797343 362.02694129 356.95939071 365.75 340.5625 C365.96785156 339.81742188 366.18570313 339.07234375 366.41015625 338.3046875 C366.94445956 336.3258597 366.94445956 336.3258597 365.75 333.5625 C365.13888258 328.4116532 364.8564124 324.77877201 368 320.5 C370.5045095 318.73545922 371.85629929 318.16226275 374.75 317.5625 C374.69779297 316.67111328 374.69779297 316.67111328 374.64453125 315.76171875 C374.20139492 302.19330639 379.17487237 289.487058 388.0625 279.25 C400.96009134 265.88262884 417.00974526 259.92731236 434.75 255.5625 C435.50418213 255.37558594 436.25836426 255.18867187 437.03540039 254.99609375 C462.09147497 249.35589608 485.23359006 255.05465455 506.5625 268.4375 C512.05736425 272.27112622 516.89232629 276.96813945 521.75 281.5625 C525.18839315 280.22773915 528.49393925 278.73172398 531.8125 277.125 C545.69684172 270.83423927 559.23782357 269.58098866 573.75 274.5625 C585.16152636 279.11859448 593.13284587 285.36005827 598.32421875 296.65234375 C603.01700244 308.74293587 605.08127784 321.9372135 607.5078125 334.62890625 C607.65801346 335.41268646 607.80821442 336.19646667 607.96296692 337.0039978 C608.70177383 340.87402368 609.42653995 344.74584161 610.12670898 348.62304688 C611.95270481 358.54554818 614.52296891 368.00539085 617.75 377.5625 C618.22723511 378.98308716 618.22723511 378.98308716 618.71411133 380.43237305 C625.31138834 399.36342236 639.68836956 412.38237028 657.29956055 421.03833008 C658.35570557 421.54130615 659.41185059 422.04428223 660.5 422.5625 C661.63671143 423.10865967 662.77342285 423.65481934 663.94458008 424.2175293 C675.77673142 429.81776833 687.96663468 434.54293753 700.20019531 439.18554688 C707.82203429 442.09444137 715.28829076 445.15182863 722.59765625 448.78515625 C723.57686287 449.27022392 723.57686287 449.27022392 724.57585144 449.76509094 C733.43720758 454.28681908 739.83841094 460.21595287 743.4375 469.625 C747.14454699 481.76456047 746.41818936 494.31748114 741.125 505.8125 C737.29152957 512.96393749 732.09561326 518.88969337 724.75 522.5625 C726.11819212 525.48130986 727.72550258 527.96422374 729.625 530.5625 C737.04585533 541.78472484 738.78449371 554.64429175 736.33837891 567.77148438 C732.70165771 583.21615181 724.12025223 597.08898119 710.95703125 606.25390625 C701.98997941 611.5706538 693.0482062 613.5418198 682.75 614.5625 C683.35328125 615.50609375 683.9565625 616.4496875 684.578125 617.421875 C695.12463584 634.23862987 700.02169306 652.60102884 696.1015625 672.51171875 C693.22043209 682.9158008 687.14689455 691.14312695 677.75 696.5625 C665.67841358 702.28658558 652.53098309 702.9309536 639.375 702.875 C638.07731689 702.87298584 636.77963379 702.87097168 635.44262695 702.86889648 C624.52701771 702.75701367 613.93207418 701.64779663 603.16552734 699.92626953 C599.3716505 699.35492564 595.56566941 698.95988519 591.75 698.5625 C593.54033807 699.87681172 595.33231203 701.1888953 597.125 702.5 C598.62160156 703.59634766 598.62160156 703.59634766 600.1484375 704.71484375 C604.67684016 707.93096156 608.24164559 707.70143452 613.65014648 707.68847656 C614.57220886 707.6903447 615.49427124 707.69221283 616.4442749 707.69413757 C618.45063942 707.69814716 620.45700851 707.70021692 622.463377 707.70059967 C626.72191322 707.70400536 630.98029539 707.7253528 635.23877811 707.74583054 C643.17426132 707.78392079 651.10958105 707.81511078 659.04516602 707.81298828 C664.55899832 707.81220323 670.0722689 707.83547597 675.58595467 707.8748703 C677.69072001 707.88536349 679.79554994 707.88683009 681.90032768 707.87921906 C684.84099467 707.86964497 687.77994711 707.89068842 690.72045898 707.91894531 C691.59485123 707.90874863 692.46924347 707.89855194 693.37013245 707.88804626 C695.61287893 707.92682424 697.5817967 707.98754554 699.75 708.5625 C701.81434631 711.10272217 701.81434631 711.10272217 702.75 713.5625 C701.73601175 715.53123463 701.73601175 715.53123463 699.75 717.5625 C697.02533898 717.96191622 694.70092045 718.09777625 691.97381204 718.06274599 C690.76533801 718.07097354 690.76533801 718.07097354 689.53245036 718.07936731 C686.80412347 718.09298322 684.07669076 718.07783867 681.34838009 718.06307125 C679.37571546 718.06693672 677.40305362 718.07255617 675.43039843 718.07978085 C669.96710816 718.09462908 664.50410158 718.0843118 659.0408199 718.07016886 C653.11336616 718.05917997 647.18595399 718.07125585 641.2585035 718.08047634 C630.85587866 718.09342458 620.45332126 718.09151659 610.05069923 718.07969666 C598.88498442 718.06707939 587.719317 718.06312098 576.5535965 718.06981087 C575.84922971 718.07022708 575.14486293 718.07064329 574.41915169 718.07107211 C571.55053472 718.07279676 568.6819178 718.0745846 565.81330091 718.0764523 C539.07307223 718.093857 512.33287855 718.09165241 485.59264946 718.07711601 C459.81943815 718.06312326 434.04624265 718.05606913 408.27302742 718.05882454 C406.65612433 718.05898742 405.03922123 718.05914946 403.42231814 718.05931065 C396.92509042 718.05996892 390.42786271 718.06067267 383.930635 718.06143599 C365.76693093 718.06354789 347.60322693 718.06430008 329.43952274 718.0640192 C328.61231122 718.06400682 327.7850997 718.06399444 326.93282116 718.06398169 C300.56432193 718.06349212 274.19582761 718.05706345 247.82733059 718.04646206 C246.97177241 718.04611862 246.11621423 718.04577518 245.23473004 718.04542134 C231.33994982 718.03982234 217.44516974 718.03388828 203.55038967 718.02793228 C148.43535932 718.0043289 93.32035664 717.9981373 38.20532227 718.00854492 C34.72243245 718.00919813 31.23954264 718.00984944 27.75665282 718.01050042 C26.89552791 718.01066146 26.03440299 718.01082249 25.14718338 718.01098841 C15.61103088 718.0127678 6.07487837 718.01448995 -3.46127415 718.01614285 C-4.74395293 718.0163669 -4.74395293 718.0163669 -6.05254441 718.01659547 C-51.37146525 718.02444866 -96.69038362 718.01885 -142.00930358 718.00802955 C-148.50049869 718.00648024 -154.99169381 718.00496689 -161.48288893 718.00345473 C-163.9039691 718.00288649 -166.32504926 718.002305 -168.74612942 718.00172299 C-186.47005545 717.99751775 -204.1939787 717.99532827 -221.91790509 717.99840808 C-223.11724795 717.99861599 -223.11724795 717.99861599 -224.34081995 717.99882811 C-228.36687833 717.99953855 -232.3929367 718.00028475 -236.41899507 718.00104547 C-265.48189047 718.00652761 -294.5447567 718.0024438 -323.6076457 717.98105692 C-326.46676296 717.97899451 -329.32588024 717.97697778 -332.18499756 717.97499657 C-332.88670208 717.97450562 -333.5884066 717.97401467 -334.31137489 717.97350885 C-345.450486 717.96598156 -356.58957133 717.96852079 -367.72868203 717.97517041 C-378.66510153 717.98148426 -389.60147826 717.97690594 -400.5378896 717.96129211 C-406.39510996 717.95323407 -412.25222716 717.95005659 -418.10944719 717.95986467 C-423.42651663 717.9686676 -428.74338656 717.96393048 -434.0604375 717.94788523 C-435.98292261 717.94454109 -437.90542445 717.94633997 -439.8278987 717.95361372 C-442.4185674 717.96269957 -445.00852993 717.95364971 -447.59916121 717.93969816 C-448.35522659 717.94675225 -449.11129197 717.95380634 -449.89026842 717.96107419 C-451.96363935 717.93840417 -451.96363935 717.93840417 -455.25 717.5625 C-457.25 714.5625 -457.25 714.5625 -456.9375 711.9375 C-456.25 709.5625 -456.25 709.5625 -455.25 708.5625 C-452.81603981 708.46751354 -450.41057048 708.43691583 -447.97631836 708.44897461 C-447.21539383 708.44882858 -446.4544693 708.44868256 -445.67048645 708.4485321 C-443.14357702 708.44923138 -440.61674038 708.45702445 -438.08984375 708.46484375 C-436.3424941 708.46670788 -434.59514393 708.4681318 -432.84779358 708.46913147 C-428.23968066 708.47295707 -423.63159905 708.48278771 -419.02349854 708.49383545 C-414.32491479 708.50404866 -409.62632601 708.5086289 -404.92773438 708.51367188 C-395.70180913 708.52440995 -386.47590716 708.54148687 -377.25 708.5625 C-377.21038241 708.00924419 -377.17076483 707.45598839 -377.12994671 706.88596725 C-376.47476947 699.14799521 -374.99104617 691.62894788 -373.44262695 684.02832031 C-373.15306702 682.58841473 -372.86397702 681.14841458 -372.57531738 679.70832825 C-371.95686025 676.62664006 -371.33567036 673.54552026 -370.71245766 670.46479034 C-369.72712504 665.59103 -368.75143586 660.71536994 -367.77763367 655.83929443 C-365.00875697 641.98072775 -362.23277852 628.12362371 -359.43432617 614.27099609 C-357.88588454 606.60563915 -356.34838558 598.93817291 -354.82310838 591.26817203 C-354.01665173 587.21538107 -353.20447652 583.16392201 -352.37865639 579.11502838 C-351.60305122 575.31229178 -350.84169088 571.50698131 -350.09113312 567.69922447 C-349.81349276 566.30417642 -349.53059384 564.91016289 -349.24201775 563.51733589 C-348.84838291 561.61357971 -348.47554287 559.70555934 -348.10371399 557.79742432 C-347.88931325 556.73191471 -347.67491251 555.66640511 -347.45401478 554.56860733 C-347.12103771 549.66227248 -349.06551171 545.68442555 -351.23828125 541.3828125 C-362.33727644 518.97464103 -369.97805541 495.18762179 -361.93896484 470.40917969 C-356.38937476 455.53423304 -343.55884594 446.65107088 -329.88671875 439.90234375 C-309.11220165 430.86693086 -283.79760912 427.04697103 -261.25 427.5625 C-261.096521 426.36850586 -261.096521 426.36850586 -260.93994141 425.15039062 C-259.462693 414.2103466 -257.32498679 403.44148627 -255.13085938 392.62695312 C-254.65266807 390.26266863 -254.1814652 387.89706969 -253.7109375 385.53125 C-253.56409515 384.81868042 -253.41725281 384.10611084 -253.26596069 383.37194824 C-252.47564541 379.38101977 -251.94448005 375.62985147 -252.25 371.5625 C-253.94553284 369.1108626 -253.94553284 369.1108626 -256.3125 366.9375 C-264.62242146 358.19640337 -272.25 346.05248991 -272.25 333.5625 C-273.47074219 333.60890625 -274.69148438 333.6553125 -275.94921875 333.703125 C-288.49697742 334.03793636 -300.45541017 333.67954397 -310.5390625 325.19140625 C-318.99759406 317.13842072 -322.10694509 309.26870057 -322.5 297.5625 C-322.35239625 284.03830608 -318.72964526 272.49181008 -309.51171875 262.609375 C-301.39224548 255.26118157 -290.39677792 253.08423809 -279.6875 253.37109375 C-270.62993504 254.08234484 -261.93661651 255.95129263 -253.25 258.5625 C-252.54875 257.83804687 -251.8475 257.11359375 -251.125 256.3671875 C-250.16746539 255.38984183 -249.20907186 254.41333721 -248.25 253.4375 C-247.75105225 252.92541992 -247.25210449 252.41333984 -246.73803711 251.88574219 C-243.92687821 249.05430725 -241.27349854 246.8406844 -237.8125 244.8125 C-233.42383813 241.72089204 -232.87493339 237.63356696 -231.74511719 232.58618164 C-228.31940462 217.53175204 -219.62978755 205.67633782 -206.9140625 197.03515625 C-204.09339048 195.47592846 -201.38628232 194.6366395 -198.3125 193.6875 C-189.36578877 190.15921951 -185.68381175 181.57128555 -181.25 173.5625 C-180.80350098 172.78438965 -180.35700195 172.0062793 -179.89697266 171.20458984 C-165.95906629 146.8827663 -162.12270314 125.17603298 -166.38870239 97.6204834 C-171.07793684 66.85428901 -173.00191186 36.80907345 -155.41015625 9.73046875 C-140.21248773 -10.67232092 -116.64330788 -20.26496049 -92.25 -24.4375 C-60.07770334 -29.01449801 -24.49017021 -22.29452597 0 0 Z M521.75 396.5625 C519.30216062 397.84416696 519.30216062 397.84416696 516.625 399.6875 C499.16498516 410.22661739 478.61919164 410.97644149 458.75 410.5625 C460.35380944 430.04823685 460.35380944 430.04823685 469.75 446.5625 C474.90586423 449.13226894 479.33611838 450.12720364 485.04296875 450.58984375 C486.65055711 450.74174121 488.2581416 450.89367955 489.86572266 451.0456543 C490.69549622 451.11972504 491.52526978 451.19379578 492.38018799 451.27011108 C508.11801272 452.68485886 523.40220063 454.71191047 538.75 458.5625 C538.57331787 457.9228833 538.39663574 457.2832666 538.21459961 456.62426758 C532.85013963 437.0931614 528.03483028 417.5571191 524.75 397.5625 C523.76 397.2325 522.77 396.9025 521.75 396.5625 Z " fill="#5271FF" transform="translate(1535.25,1258.4375)"/>
<path d="M0 0 C21.82317197 -0.88174432 38.32336852 5.03750877 54.6484375 19.83203125 C70.20106692 34.34989121 81.13160008 51.85509474 92 70 C92.48549316 70.81017578 92.97098633 71.62035156 93.47119141 72.45507812 C94.78778873 74.66988022 96.08599928 76.89404718 97.375 79.125 C97.95616577 80.10992432 97.95616577 80.10992432 98.54907227 81.11474609 C99.44697623 82.69997895 100.23465575 84.34668729 101 86 C100 89 100 89 96.71875 90.76171875 C95.31440708 91.4078073 93.90802711 92.04948032 92.5 92.6875 C76.93890496 100.18223149 67.76724604 112.37992372 61.99609375 128.53515625 C60.15844251 134.92729997 59.03630026 141.43676503 58 148 C53.96467714 143.05347521 52.87424308 141.09529442 53.04296875 134.69921875 C53.06423828 133.41080078 53.08550781 132.12238281 53.10742188 130.79492188 C53.15593252 128.09856557 53.22464989 125.40488437 53.30273438 122.70898438 C53.53780686 105.1133735 46.60204025 91.19858621 37.5546875 76.4765625 C36.03109308 74.72144615 36.03109308 74.72144615 33.3203125 74.7734375 C32.17175781 74.88558594 32.17175781 74.88558594 31 75 C30.09782609 76.66221125 30.09782609 76.66221125 30 79 C31.28979178 81.33291831 32.59633622 83.39772815 34.125 85.5625 C43.47935624 99.51623218 49.15254581 114.82422535 46.56640625 131.85546875 C44.77873533 140.26085315 41.01276462 147.46009196 37 155 C27.28063491 173.69455605 24.39011326 191.75326901 24.5625 212.6875 C24.56653839 213.51416168 24.57057678 214.34082336 24.57473755 215.1925354 C24.73779927 239.10221588 29.89788885 259.53903518 38 282 C38.3412793 282.94842773 38.68255859 283.89685547 39.03417969 284.87402344 C40.39881502 288.65809121 41.76817804 292.44041502 43.14257812 296.22094727 C52.91288633 323.23092324 61.98762632 350.50342436 70.6875 377.875 C71.11644058 379.22315292 71.11644058 379.22315292 71.55404663 380.59854126 C74.78255691 390.76427861 77.91363244 400.95285764 80.89013672 411.1953125 C81.87690032 414.57800584 82.8833004 417.95384735 83.89846802 421.32806396 C84.71934301 424.06456181 85.50979919 426.8092974 86.296875 429.55566406 C86.80429534 431.3196545 87.31811352 433.08180893 87.8359375 434.84277344 C88.72521397 437.88933233 89.58380282 440.94329999 90.4375 444 C90.72101318 444.95535645 91.00452637 445.91071289 91.29663086 446.89501953 C93.0493869 453.31860926 92.87202228 457.66466975 91 464 C90.56918231 467.10188739 90.40670642 469.9136748 91 473 C93.14136022 475.79566473 94.71485622 477.51807108 98.03125 478.76171875 C101.73473763 481.0910949 102.11739952 485.39826972 103.234375 489.4140625 C104.95550821 497.47528845 105.02261742 504.71383458 101.20703125 512.15625 C98.45619892 516.35816864 95.7915278 517.80211805 91 519 C90.01 522.3 89.02 525.6 88 529 C75.79 529 63.58 529 51 529 C47.9990625 521.4821875 47.9990625 521.4821875 44.9375 513.8125 C39.31806172 499.75332902 33.65519826 485.7123482 27.95849609 471.68432617 C27.32126824 470.11508007 26.68406153 468.54582538 26.046875 466.9765625 C25.72510284 466.18411636 25.40333069 465.39167023 25.07180786 464.57521057 C22.50401134 458.24843542 19.94602189 451.91772971 17.390625 445.5859375 C16.99568344 444.60777069 16.60074188 443.62960388 16.1938324 442.62179565 C14.18132883 437.63718012 12.17049931 432.65190012 10.16235352 427.66552734 C6.23426615 417.92322195 2.2643632 408.20161332 -1.80078125 398.515625 C-2.55887124 396.70109103 -3.31676949 394.88647695 -4.07446289 393.07177734 C-5.4905648 389.68051859 -6.92303764 386.29683772 -8.36499023 382.91650391 C-8.99920481 381.40034505 -9.63278771 379.88392175 -10.265625 378.3671875 C-10.56040237 377.68924133 -10.85517975 377.01129517 -11.15888977 376.31280518 C-12.73972176 372.47626322 -13.42429242 369.95617814 -12 366 C-10.9753418 364.1574707 -10.9753418 364.1574707 -9.69921875 362.42578125 C-9.22291016 361.76811768 -8.74660156 361.1104541 -8.25585938 360.43286133 C-7.73830078 359.73314209 -7.22074219 359.03342285 -6.6875 358.3125 C-5.58556374 356.78245555 -4.48535388 355.25116653 -3.38671875 353.71875 C-2.82259277 352.935 -2.2584668 352.15125 -1.67724609 351.34375 C5.68834468 341.0512214 12.45549984 330.52834171 18.5625 319.4375 C19.31370117 318.08168823 19.31370117 318.08168823 20.08007812 316.69848633 C26.0729586 305.90432262 26.0729586 305.90432262 27 294 C25.55870625 292.01978772 24.0201222 290.27068115 22.3125 288.515625 C21 287 21 287 21 285 C20.01 284.67 19.02 284.34 18 284 C16.10235527 280.81195686 14.99700694 277.98760017 14.125 274.375 C12.77017523 270.3105257 11.48386262 269.39999425 8 267 C3.24013603 263.46745522 0.21021879 260.30579604 -2.17578125 254.83203125 C-3.06082712 252.73056568 -3.06082712 252.73056568 -5 250 C-4.43152344 249.28457031 -3.86304688 248.56914063 -3.27734375 247.83203125 C9.28597802 231.65712263 9.28597802 231.65712263 12 212 C10.65021698 208.83178767 10.65021698 208.83178767 8 207 C2.65273968 205.95151758 -0.97302436 207.50181685 -5.453125 210.23046875 C-24.44076364 223.4228005 -40.04832753 241.63200558 -54.8125 259.23828125 C-57.08579549 261.91584835 -59.05948628 264.03965752 -62 266 C-63.22374905 260.84277186 -64.20328427 255.75056793 -64.9375 250.5 C-66.2245505 242.0153671 -67.7271458 235.12350053 -74 229 C-78.45217787 226.15555303 -83.02688551 227.0780181 -88 228 C-88.99 228.33 -89.98 228.66 -91 229 C-91.90833969 231.72501908 -92.18359985 233.62233971 -92.31640625 236.44921875 C-92.35830078 237.29677734 -92.40019531 238.14433594 -92.44335938 239.01757812 C-92.48267578 239.89865234 -92.52199219 240.77972656 -92.5625 241.6875 C-92.62727539 243.02651367 -92.62727539 243.02651367 -92.69335938 244.39257812 C-92.79935353 246.59490108 -92.90142051 248.79733473 -93 251 C-98.45908527 250.61619112 -103.91759992 250.22525366 -109.37573242 249.828125 C-111.22683387 249.69439952 -113.07806938 249.56251503 -114.92944336 249.43261719 C-144.60517799 247.34673154 -144.60517799 247.34673154 -150 244 C-155.55337789 233.80999231 -151.3535661 219.27016976 -148.3671875 208.77636719 C-146.99265201 204.15705898 -145.52038309 199.57316812 -144 195 C-142.98421875 194.84144531 -141.9684375 194.68289063 -140.921875 194.51953125 C-128.33347521 192.4363046 -114.21886314 189.50929264 -106.25 178.60546875 C-101.53130895 171.03968286 -99.64426712 164.73100972 -99.75 155.875 C-99.75966797 155.02462158 -99.76933594 154.17424316 -99.77929688 153.2980957 C-100.27149561 127.41582529 -113.41807611 94.58192389 -132 76 C-132.24841338 74.37783073 -132.4731753 72.75202406 -132.6875 71.125 C-133.99803326 63.82210088 -136.52582742 57.01054816 -142.25390625 52.046875 C-144.45571414 50.55240243 -146.64197479 49.23046043 -149 48 C-149.6909375 47.63261719 -150.381875 47.26523438 -151.09375 46.88671875 C-163.08461519 41.30900072 -180.68050424 45.22991262 -192.51953125 49.171875 C-198.78210077 51.53400832 -204.92552567 54.19035942 -211 57 C-209.1953271 45.7207944 -202.57834894 35.1795482 -193.83203125 27.96484375 C-180.45696264 18.68531339 -166.95057579 15.62424656 -151 15 C-150.64808594 15.63389648 -150.29617188 16.26779297 -149.93359375 16.92089844 C-140.57866845 33.83851725 -140.57866845 33.83851725 -130 50 C-129.38125 50.89074219 -128.7625 51.78148437 -128.125 52.69921875 C-122.83919799 60.16967683 -116.99764026 67.10084013 -111 74 C-110.23558594 74.88945313 -109.47117187 75.77890625 -108.68359375 76.6953125 C-96.10559143 91.05088581 -82.23677354 101.12045965 -65 109 C-64.02417969 109.46019531 -63.04835938 109.92039062 -62.04296875 110.39453125 C-48.31672409 115.95179482 -30.64643721 114.25295369 -17.0625 108.9375 C-5.88344568 104.12608071 2.09657159 95.08716629 6.828125 84.046875 C17.28002706 56.87192963 9.01235537 26.39024633 0 0 Z " fill="#FDFEFF" transform="translate(1522,1438)"/>
<path d="M0 0 C0.77257742 13.10094043 -9.9318528 24.49928353 -17.75390625 34.16796875 C-19.36927923 36.54292151 -19.23418968 38.18972387 -19 41 C-18.030625 41.391875 -17.06125 41.78375 -16.0625 42.1875 C-13 44 -13 44 -12.30859375 46.61328125 C-12.20675781 47.40089844 -12.10492187 48.18851563 -12 49 C-13.32451172 49.99966797 -13.32451172 49.99966797 -14.67578125 51.01953125 C-20.77761312 55.67976373 -26.76796799 60.43066476 -32.3125 65.75 C-33.19550781 66.59046875 -34.07851562 67.4309375 -34.98828125 68.296875 C-37.41643569 71.55956019 -37.73818398 73.98878099 -38 78 C-35.66861964 78.36114774 -35.66861964 78.36114774 -33 78 C-30.8817277 76.19204622 -30.8817277 76.19204622 -29 73.6875 C-25.33549839 69.37016281 -21.50816041 65.63355876 -17.1875 62 C-16.63642578 61.53166748 -16.08535156 61.06333496 -15.51757812 60.58081055 C-12.81594972 58.33316457 -10.24372266 56.38231281 -7 55 C-5.50673155 55.85071051 -4.03069584 56.73171392 -2.5625 57.625 C-1.73878906 58.11226562 -0.91507813 58.59953125 -0.06640625 59.1015625 C2.6252702 61.57444483 2.72524116 63.43313064 3 67 C2.27554687 67.49628906 1.55109375 67.99257812 0.8046875 68.50390625 C-7.60222182 74.23090198 -7.60222182 74.23090198 -14 82 C-14.50753344 84.79847753 -14.50753344 84.79847753 -14 87 C-12.15340837 87.72762596 -12.15340837 87.72762596 -10 88 C-7.77542454 86.12180139 -5.89293483 84.3156849 -3.9375 82.1875 C1.75207254 76.16528497 1.75207254 76.16528497 5 74 C8.42362048 74.30387164 10.0709384 75.66782902 12.3125 78.1875 C12.84488281 78.75855469 13.37726563 79.32960938 13.92578125 79.91796875 C15.52486786 83.01728935 14.91959078 84.65316318 14 88 C12.85008374 91.00915084 11.51686575 93.9082645 10.125 96.8125 C9.52498169 98.0665564 9.52498169 98.0665564 8.9128418 99.34594727 C4.63964617 108.05109247 -0.50017875 116.02997931 -6 124 C-6.53786133 124.78487793 -7.07572266 125.56975586 -7.62988281 126.37841797 C-15.59800965 137.98076557 -23.86588498 149.35248237 -32.25878906 160.64990234 C-33.98994601 162.98643022 -35.71144757 165.32974174 -37.4296875 167.67578125 C-44.17779133 176.88480034 -51.02176823 186.01297927 -57.95947266 195.08007812 C-62.59929592 201.1469357 -67.1848003 207.25186793 -71.75 213.375 C-76.66899064 219.96463961 -81.69322299 226.44787505 -86.86425781 232.84130859 C-89.82300201 236.50513657 -92.69310091 240.2172256 -95.5 244 C-99.3769985 249.22308117 -103.4108938 254.30079049 -107.49047852 259.36547852 C-110.69491222 263.34982193 -113.83752742 267.37130219 -116.9375 271.4375 C-120.79238921 276.46750866 -124.71090145 281.44059707 -128.6875 286.375 C-129.21013428 287.02911865 -129.73276855 287.6832373 -130.27124023 288.35717773 C-140.07453151 300.45370866 -150.31252245 309.29658866 -166.375 311.453125 C-190.97131709 312.28088567 -213.83383335 292.70866194 -231 277 C-234.06981593 274.06326858 -237.04965942 271.05591936 -240 268 C-242.82814445 265.15735225 -245.67366502 262.33264046 -248.5234375 259.51171875 C-260.74074517 247.39677316 -260.74074517 247.39677316 -265.38671875 241.8984375 C-268.13956626 238.6590092 -271.02659235 235.53914624 -273.88671875 232.39453125 C-274.93279297 231.20923828 -274.93279297 231.20923828 -276 230 C-276.73734375 229.1853125 -277.4746875 228.370625 -278.234375 227.53125 C-281.42353908 222.95917406 -280.6743442 218.35298009 -280 213 C-276.61125444 197.61790609 -269.76927431 182.42364195 -256.47265625 173.2578125 C-246.0573921 167.01164261 -233.40999952 165.31988786 -221.51953125 167.6953125 C-217.44028033 169.20748765 -215.47824002 170.98032892 -212.5 174.125 C-211.6234375 175.03507812 -210.746875 175.94515625 -209.84375 176.8828125 C-207.86251872 179.02139913 -205.96191084 181.21574413 -204.0703125 183.43359375 C-198.76719497 189.52075102 -193.04532086 195.21519139 -187.35644531 200.9387207 C-186.02743361 202.2793588 -184.70292877 203.62447869 -183.3828125 204.97387695 C-181.46018089 206.93901734 -179.52478377 208.89071512 -177.5859375 210.83984375 C-176.99936371 211.44392563 -176.41278992 212.04800751 -175.80844116 212.6703949 C-172.69520156 215.76730111 -170.60295139 217.74655248 -166 218 C-160.59927825 210.95905905 -155.4304909 203.80183171 -150.42919922 196.47290039 C-146.7622492 191.10026112 -143.04852435 185.76231786 -139.3125 180.4375 C-134.23568918 173.19739864 -129.17314109 165.94762349 -124.125 158.6875 C-123.45911865 157.7298877 -122.7932373 156.77227539 -122.10717773 155.78564453 C-120.07122076 152.85725689 -118.03555506 149.92866702 -116 147 C-113.29204029 143.10390677 -110.58378526 139.20801931 -107.875 135.3125 C-107.22015625 134.37075928 -106.5653125 133.42901855 -105.890625 132.45874023 C-100.72223972 125.02982732 -95.53633824 117.61327916 -90.33935547 110.2043457 C-89.79682129 109.43050537 -89.25428711 108.65666504 -88.6953125 107.859375 C-88.22109863 107.18358398 -87.74688477 106.50779297 -87.25830078 105.81152344 C-84.07470427 101.32221679 -84.07470427 101.32221679 -84 96 C-85.80240507 93.65387653 -87.83439037 91.72878747 -89.95703125 89.671875 C-94.82144317 83.31000549 -95.52921363 76.0449004 -95.4375 68.25 C-95.43355225 67.36731445 -95.42960449 66.48462891 -95.42553711 65.57519531 C-95.29147701 59.44320802 -94.10163174 54.53692929 -91.95703125 48.78515625 C-89.69334343 39.83203994 -90.13042815 30.19630891 -90 21 C-87.6640625 20.37890625 -87.6640625 20.37890625 -85 20 C-79.34516668 24.17380554 -77.54995932 29.75500895 -76.41894531 36.4284668 C-75.88441333 40.40689029 -75.39552634 44.38719913 -74.9375 48.375 C-74.69852345 50.44131687 -74.45653088 52.50700962 -74.20375061 54.57168579 C-73.97642869 56.42879419 -73.76120318 58.28737145 -73.54663086 60.14599609 C-73.25378453 63.12052747 -73.25378453 63.12052747 -71 65 C-68.60145997 65.16084234 -68.60145997 65.16084234 -66 64 C-63.89997489 61.91757286 -62.090773 59.91526756 -60.25 57.625 C-59.72414307 56.99231201 -59.19828613 56.35962402 -58.65649414 55.70776367 C-56.27531961 52.8334829 -53.93944352 49.92442788 -51.60546875 47.01171875 C-46.90534473 41.15985263 -41.92699263 35.81117802 -36.5703125 30.56640625 C-34.36055186 28.36000391 -32.28394942 26.11686042 -30.25 23.75 C-9.82403651 0 -9.82403651 0 0 0 Z " fill="#FEFEFF" transform="translate(1527,1652)"/>
<path d="M0 0 C1.36523438 1.40429688 1.36523438 1.40429688 2.59375 3.21875 C3.05958496 3.89357422 3.52541992 4.56839844 4.00537109 5.26367188 C4.49859863 6.00166016 4.99182617 6.73964844 5.5 7.5 C6.58552301 9.08361753 7.67147083 10.66694395 8.7578125 12.25 C9.30469727 13.054375 9.85158203 13.85875 10.41503906 14.6875 C11.81288952 16.72700085 13.2345467 18.74388083 14.6796875 20.75 C21.22761077 29.84333685 27.49415747 39.12373811 33.72369385 48.43676758 C34.68284995 49.87060257 35.64305765 51.30373479 36.60443115 52.73608398 C41.56871505 60.13862341 46.44156359 67.58338273 51.0546875 75.2109375 C51.42607346 75.82127838 51.79745941 76.43161926 52.18009949 77.06045532 C54.86809619 81.56344905 56.72448444 85.93517908 58 91 C58.34546875 92.07894531 58.6909375 93.15789062 59.046875 94.26953125 C61.75594206 104.87264207 61.05662892 118.63660388 55.7109375 128.33984375 C49.60154131 137.11189122 41.28833935 141.05640254 31.02734375 143.0625 C24.77127877 144.16092084 18.65339011 144.34446854 12.3125 144.3125 C11.13768066 144.30758545 9.96286133 144.3026709 8.75244141 144.29760742 C-15.36191265 143.98146522 -39.21140928 139.25657079 -62.4375 133 C-90.19238859 125.59377951 -117.06268554 123.51310682 -145.625 122.5 C-187.94305916 120.97607203 -187.94305916 120.97607203 -206 113 C-206 112.67 -206 112.34 -206 112 C-205.02389771 111.970271 -205.02389771 111.970271 -204.02807617 111.93994141 C-201.08080849 111.84470701 -198.13425115 111.73502182 -195.1875 111.625 C-194.16333984 111.5940625 -193.13917969 111.563125 -192.08398438 111.53125 C-191.10107422 111.49257812 -190.11816406 111.45390625 -189.10546875 111.4140625 C-188.19949951 111.3826416 -187.29353027 111.3512207 -186.36010742 111.31884766 C-183.73474608 111.13972081 -183.73474608 111.13972081 -181 109 C-181.33 107.35 -181.66 105.7 -182 104 C-182.73412109 104.01571045 -183.46824219 104.0314209 -184.22460938 104.04760742 C-222.58142946 104.75914205 -222.58142946 104.75914205 -232.8125 95.4375 C-235 93 -235 93 -235 91 C-234.29359375 91.10957031 -233.5871875 91.21914062 -232.859375 91.33203125 C-230.62561751 91.67719729 -228.39115371 92.01780395 -226.15625 92.35546875 C-223.19237617 92.80740185 -220.23670464 93.29684754 -217.28125 93.80078125 C-206.41297971 95.60576653 -196.01169824 96.38512416 -185 96 C-184.61781233 94.34385343 -184.28604898 92.67542976 -184 91 C-185.73311254 89.26688746 -188.00178135 89.8310883 -190.31958008 89.76025391 C-201.55757384 89.40560791 -212.40811429 87.63959875 -223.43017578 85.49658203 C-225.69898573 85.05816673 -227.9706697 84.64829003 -230.24609375 84.24609375 C-231.40238281 84.02050781 -232.55867188 83.79492188 -233.75 83.5625 C-234.71421875 83.37816406 -235.6784375 83.19382812 -236.671875 83.00390625 C-239.80436593 81.65315093 -240.61472768 80.06145182 -242 77 C-242 76.01 -242 75.02 -242 74 C-236.96705247 73.77266485 -233.45419565 74.33566093 -228.8125 76.25 C-209.63395663 83.35091637 -184.16440943 87.75503654 -164.51733398 80.02294922 C-160.88939748 78.34759974 -159.27827431 77.41741146 -157 74 C-157.10916814 68.21408874 -158.93436852 64.91652519 -163 61 C-165.01629734 59.19987489 -167.05169259 57.43575672 -169.1328125 55.7109375 C-171.06592606 53.93959077 -172.56086615 52.18998629 -174 50 C-174 49.34 -174 48.68 -174 48 C-158.70581 49.48062565 -144.91063043 56.90206598 -134.1875 67.8125 C-122.70910448 77.82556844 -103.19171612 75.54848148 -89.12353516 75.41162109 C-85.29952649 75.37546823 -81.47650459 75.37060088 -77.65234375 75.37109375 C-50.67807539 76.90898085 -50.67807539 76.90898085 -25 72 C-24.957279 70.33388095 -24.95936168 68.66617115 -25 67 C-25.33 66.67 -25.66 66.34 -26 66 C-28.96901433 66.09296914 -31.91228155 66.2431913 -34.875 66.4375 C-41.92666798 66.8598466 -48.93297829 67.14292853 -56 67 C-55.67 65.02 -55.34 63.04 -55 61 C-52.94921875 60.77213542 -50.8984375 60.54427083 -48.84765625 60.31640625 C-46.98859771 60.18113386 -46.98859771 60.18113386 -46 59 C-45.93740661 53.05362825 -46.98573386 48.54245906 -51 44 C-53.27404645 42.43354311 -55.51808189 41.24095906 -58 40 C-58 39.34 -58 38.68 -58 38 C-56.6696875 36.948125 -56.6696875 36.948125 -55.3125 35.875 C-48.16158535 30.10704526 -45.28655195 21.70075604 -43.3203125 12.98828125 C-41.60613739 9.1085654 -39.17672617 7.70792254 -35.5625 5.8125 C-34.93287354 5.47154297 -34.30324707 5.13058594 -33.65454102 4.77929688 C-23.6970175 -0.43588829 -11.06870788 -3.84074766 0 0 Z " fill="#FDFEFF" transform="translate(2164,1809)"/>
<path d="M0 0 C11.39760874 13.72433951 15.75712249 38.72207646 15 56 C13.64706779 69.87183657 9.48051519 79.55011719 -1 89 C-12.5058178 97.65380914 -26.92425495 101.21387326 -41 103 C-42.89646731 116.72240577 -43.50989216 128.61277632 -36.3125 140.875 C-30.80799896 145.93319014 -24.62295626 147.65693204 -17.23828125 147.40625 C-12.40458452 146.79985138 -7.71969835 145.67115769 -3.01367188 144.42382812 C1.10267457 143.34582873 4.70028648 142.78400183 9 143 C11.86182832 148.401625 13.99439545 153.53697465 15.5625 159.4375 C15.87610474 160.60974121 15.87610474 160.60974121 16.19604492 161.80566406 C19.30519405 173.73307585 21.24903956 185.07415802 21.3125 197.4375 C21.31805908 198.33694336 21.32361816 199.23638672 21.3293457 200.16308594 C21.18190728 213.81815176 17.86029568 227.08441294 8 237 C-2.08310745 245.4053581 -14.89137526 248.83077508 -27.8984375 248.30859375 C-44.88717053 246.618279 -59.26513623 237.88887777 -72 227 C-72.99515625 226.15695312 -73.9903125 225.31390625 -75.015625 224.4453125 C-94.35265805 207.38620219 -108.13990274 186.12693206 -121 164 C-121.40605469 163.31711914 -121.81210938 162.63423828 -122.23046875 161.93066406 C-125 157.22489035 -125 157.22489035 -125 155 C-124.16976318 154.94054199 -124.16976318 154.94054199 -123.32275391 154.87988281 C-106.57263192 154.1203505 -106.57263192 154.1203505 -92.1875 146.5 C-81.8522844 131.84011971 -82.70868445 113.69587913 -82.875 96.625 C-82.88505865 94.80990082 -82.89417935 92.99479619 -82.90234375 91.1796875 C-82.92410856 86.7863207 -82.95847616 82.39322264 -83 78 C-83.62777344 77.70359619 -84.25554687 77.40719238 -84.90234375 77.10180664 C-90.41959927 74.20383479 -93.97795743 67.09126014 -96.3125 61.5078125 C-97.61310275 56.76356838 -97.62779428 51.86175568 -97 47 C-96.34 46.01 -95.68 45.02 -95 44 C-89.11651343 44.25036113 -85.82463259 46.14378835 -81.11328125 49.625 C-78.8811117 51.07735431 -77.63582759 51.69970476 -75 52 C-72.3480004 51.00472064 -72.3480004 51.00472064 -69.60546875 49.39453125 C-68.56712891 48.82283203 -67.52878906 48.25113281 -66.45898438 47.66210938 C-65.37939453 47.05173828 -64.29980469 46.44136719 -63.1875 45.8125 C-61.58551758 44.92594727 -61.58551758 44.92594727 -59.95117188 44.02148438 C-54.60921426 41.05813497 -49.29600188 38.04463446 -44 35 C-44.03255208 37.01822917 -44.06510417 39.03645833 -44.09765625 41.0546875 C-44.12649242 43.08185404 -44.12649242 43.08185404 -43 45 C-40.52733235 44.65555119 -40.52733235 44.65555119 -38 44 C-36.49065783 40.98131566 -36.82489328 38.32702771 -37 35 C-37.66 34.01 -38.32 33.02 -39 32 C-38.54262451 31.68361572 -38.08524902 31.36723145 -37.61401367 31.04125977 C-28.44583695 24.68185077 -19.47988279 18.26447949 -11 11 C-10.22785156 10.3503125 -9.45570312 9.700625 -8.66015625 9.03125 C-5.34740366 6.20372881 -2.53603695 3.564369 0 0 Z " fill="#FDFEFF" transform="translate(1505,1297)"/>
<path d="M0 0 C4.17679397 1.39226466 4.83528479 3.58573364 6.79296875 7.3828125 C10.42592063 15.2600868 11.30382586 22.64849439 11.4375 31.25 C11.45981689 32.08241211 11.48213379 32.91482422 11.50512695 33.77246094 C11.45839428 46.99401709 6.24348561 59.46788484 1.5625 71.625 C-6.16491343 92.18667259 -10.04604245 112.11702411 -12 134 C-12.14683228 135.54929199 -12.14683228 135.54929199 -12.29663086 137.12988281 C-13.21763343 148.03934861 -13.11174518 158.93513576 -13.0625 169.875 C-13.05747197 171.83463427 -13.05291138 173.79426979 -13.04882812 175.75390625 C-13.03793266 180.50263585 -13.02074085 185.25130362 -13 190 C-11.35 190.33 -9.7 190.66 -8 191 C-6.65893595 188.3178719 -6.78549581 186.11601968 -6.68359375 183.1171875 C-6.64169922 181.95058594 -6.59980469 180.78398438 -6.55664062 179.58203125 C-6.51732422 178.35871094 -6.47800781 177.13539063 -6.4375 175.875 C-6.37272461 174.02841797 -6.37272461 174.02841797 -6.30664062 172.14453125 C-6.20031296 169.09647147 -6.09828219 166.0483281 -6 163 C-5.26998779 162.83395264 -4.53997559 162.66790527 -3.7878418 162.49682617 C-0.42050839 161.72945425 2.94599486 160.95849712 6.3125 160.1875 C7.46041016 159.92646484 8.60832031 159.66542969 9.79101562 159.39648438 C16.05569046 157.95898108 22.243596 156.42474543 28.39135742 154.54418945 C31.6326574 153.86802121 34.69875701 153.91566445 38 154 C37.96072388 155.31097656 37.96072388 155.31097656 37.9206543 156.6484375 C37.24933532 182.59024204 39.45842609 205.08736884 50.23144531 229.09082031 C51.01584896 231.03937068 51.5386777 232.95309589 52 235 C21.43974037 240.22270062 21.43974037 240.22270062 9.34375 241.60546875 C6.04681611 241.99447614 2.77991277 242.48848979 -0.5 243 C-16.75447585 245.28578567 -32.97698929 246.20300796 -49.38232422 246.29754639 C-51.07164811 246.30743279 -52.76095211 246.32188105 -54.45019531 246.34112549 C-67.17636788 246.46817284 -78.71481779 245.76870332 -88.50390625 236.58984375 C-98.03810054 225.9172382 -97.6406691 210.48131353 -97 197 C-96.62455381 192.91239569 -95.90382389 189.00264864 -95 185 C-94.85997559 184.35853027 -94.71995117 183.71706055 -94.57568359 183.05615234 C-89.70400096 161.22716942 -80.74759501 140.81489003 -70.82250977 120.86962891 C-64.13688939 107.41492461 -58.54392236 95.43947106 -63.125 80.1875 C-64.8885612 75.79539283 -67.2638345 71.69167412 -69.5703125 67.56640625 C-72.87940236 61.62631872 -74.91999001 56.89992505 -74 50 C-68.68962041 45.55076304 -62.61812018 45.45994568 -56 46 C-49.01869114 47.53395541 -44.96374061 51.05438908 -41 57 C-40.92094936 59.33199388 -40.91201231 61.66832622 -41 64 C-44.35559107 65.67779553 -46.26797196 65.60194001 -50 65 C-52.19834066 62.8232117 -54.06454147 60.48207528 -56 58.0703125 C-58.10199781 55.89441633 -59.05338894 55.30582638 -62 54.9375 C-62.99 54.958125 -63.98 54.97875 -65 55 C-65.33 56.65 -65.66 58.3 -66 60 C-65.13375 60.515625 -64.2675 61.03125 -63.375 61.5625 C-60.06613286 63.7371219 -57.81094376 66.40300073 -55.39453125 69.51171875 C-52.97895463 72.08968707 -50.69090946 72.01545453 -47.25 72.1875 C-43.19682643 72.10524002 -39.75459233 71.65202062 -36 70 C-34.83169965 67.33499305 -34.83169965 67.33499305 -34 64 C-32.56569249 61.67895536 -31.02124128 59.4672909 -29.4375 57.24609375 C-27.93905638 54.90477559 -27.02236465 52.57703485 -26 50 C-24.948125 48.7315625 -24.948125 48.7315625 -23.875 47.4375 C-21.09948946 42.34906402 -21.22912339 37.67780274 -22 32 C-23.06056368 29.01030757 -24.3249861 26.72189759 -26 24 C-23.59403263 24.93134221 -21.22793544 25.88837554 -18.91015625 27.0234375 C-14.13685039 29.32441571 -10.41490735 30.84939723 -5 30 C-2.63502561 28.13291495 -1.33969285 26.67938569 0 24 C0.08471364 22.18658158 0.10721083 20.37005839 0.09765625 18.5546875 C0.09443359 17.47832031 0.09121094 16.40195313 0.08789062 15.29296875 C0.07951172 14.16503906 0.07113281 13.03710938 0.0625 11.875 C0.05798828 10.73933594 0.05347656 9.60367187 0.04882812 8.43359375 C0.03701615 5.62234362 0.02054507 2.8111977 0 0 Z " fill="#FDFEFF" transform="translate(1802,1563)"/>
<path d="M0 0 C-0.82229018 6.64781074 -5.04620467 9.85055804 -10 14 C-13.51661568 16.47714546 -17.1024777 18.85149985 -20.76586914 21.10595703 C-21.44254639 21.54020996 -22.11922363 21.97446289 -22.81640625 22.421875 C-23.42943604 22.79924805 -24.04246582 23.17662109 -24.67407227 23.56542969 C-26.27760598 25.00194396 -26.27760598 25.00194396 -26.19897461 27.66113281 C-26.13331299 28.43295898 -26.06765137 29.20478516 -26 30 C-25.04859131 30.01981934 -24.09718262 30.03963867 -23.11694336 30.06005859 C-19.51027533 30.13743728 -15.90394348 30.22592184 -12.29760742 30.31738281 C-10.75112655 30.35513697 -9.20457368 30.39007142 -7.65795898 30.421875 C21.01832683 31.01832683 21.01832683 31.01832683 25 35 C24.625 37.625 24.625 37.625 24 40 C22.10121094 40.05607422 22.10121094 40.05607422 20.1640625 40.11328125 C2.37956546 40.72505336 -15.29002104 42.33238483 -33 44 C-33.6814823 45.89179203 -33.6814823 45.89179203 -34 48 C-32.20947925 50.22863588 -32.20947925 50.22863588 -29.79199219 50.15112305 C-28.88610352 50.10511963 -27.98021484 50.05911621 -27.046875 50.01171875 C-26.04213135 49.96523193 -25.0373877 49.91874512 -24.00219727 49.87084961 C-22.39235962 49.78009155 -22.39235962 49.78009155 -20.75 49.6875 C-19.65550537 49.63408447 -18.56101074 49.58066895 -17.43334961 49.52563477 C-11.80235208 49.24164533 -6.18257576 48.8855248 -0.5625 48.4375 C4.73515341 48.02546029 10.00147395 47.89321302 15.3125 47.875 C16.43579712 47.86811157 16.43579712 47.86811157 17.58178711 47.86108398 C22.87651691 47.87651691 22.87651691 47.87651691 24 49 C24.3125 51.375 24.3125 51.375 24 54 C21.84977874 56.102017 20.51187195 56.93655516 17.50830078 57.30883789 C16.58001465 57.28039795 15.65172852 57.25195801 14.6953125 57.22265625 C13.64690186 57.20251465 12.59849121 57.18237305 11.51831055 57.16162109 C10.39851807 57.12891113 9.27872559 57.09620117 8.125 57.0625 C-0.7423474 56.92956744 -9.47833899 57.06225719 -18.3125 57.875 C-19.21790527 57.95371338 -20.12331055 58.03242676 -21.05615234 58.11352539 C-25.35914628 58.54037384 -29.06419972 59.0686176 -33 61 C-32.505 63.475 -32.505 63.475 -32 66 C-27.80071463 66.08233893 -24.09847136 65.82454453 -20 65 C-8.6919205 63.74354672 2.64134122 63.897155 14 64 C13.67 64.99 13.34 65.98 13 67 C10.75167788 67.93602346 8.64379163 68.64982488 6.3125 69.3125 C5.61495605 69.52269775 4.91741211 69.73289551 4.19873047 69.94946289 C-0.04603596 71.20944077 -4.31579322 72.34885823 -8.60546875 73.4453125 C-27.99803168 78.34239598 -27.99803168 78.34239598 -42 92 C-46.22631435 101.52070145 -46.56941083 110.80349085 -46.41162109 121.00756836 C-46.37551575 123.40327848 -46.37060101 125.7974071 -46.37109375 128.19335938 C-46.27810523 149.55481364 -43.40070859 170.64860066 -40.45361328 191.77001953 C-39.06011303 201.81070102 -37.7477943 211.76247756 -37.71875 221.9140625 C-37.71600067 222.61086121 -37.71325134 223.30765991 -37.7104187 224.02557373 C-37.85437428 233.73999645 -39.73590081 244.93528468 -46.2890625 252.453125 C-53.56238633 259.02900682 -59.97563457 260.38128485 -69.6171875 260.2734375 C-85.42705436 258.99550369 -97.62485184 244.54589756 -107.47753906 233.31591797 C-115.41169584 223.89022995 -122.34841003 213.63103425 -129.28222656 203.46337891 C-130.91463078 201.12242402 -132.61010012 198.84675952 -134.3359375 196.57421875 C-141.90953121 186.31234255 -143.67922903 178.60287357 -142 166 C-141.85820313 164.7109375 -141.71640625 163.421875 -141.5703125 162.09375 C-139.57457279 149.08043353 -133.60354735 135.47453578 -123.421875 126.8046875 C-109.84615385 117 -109.84615385 117 -102 117 C-97.42198153 124.51105227 -96.2710424 130.5646876 -96.328125 139.28125 C-96.31537537 140.41655151 -96.30262573 141.55185303 -96.28948975 142.72155762 C-96.25341421 146.31463126 -96.25048218 149.90676184 -96.25 153.5 C-96.22838656 157.12145239 -96.19998051 160.74276392 -96.16766357 164.36413574 C-96.14989324 166.60993754 -96.13961763 168.85581346 -96.13751221 171.10168457 C-96.13180206 172.61466125 -96.13180206 172.61466125 -96.12597656 174.15820312 C-96.12551331 175.04737427 -96.12505005 175.93654541 -96.12457275 176.85266113 C-96.13873855 179.05140788 -96.13873855 179.05140788 -95 181 C-93.35 181 -91.7 181 -90 181 C-89.89931017 161.54982377 -89.88173932 142.11367585 -90.42935181 122.66976929 C-90.99477779 102.30295429 -91.17225539 81.93542331 -91.23217773 61.56170654 C-91.24247792 58.16405015 -91.259831 54.76654689 -91.28344727 51.36895752 C-91.3110281 47.32059008 -91.32316577 43.27244807 -91.32407379 39.22398949 C-91.32673329 37.72041224 -91.33441784 36.2168338 -91.3476181 34.71331215 C-91.50821071 15.26231606 -91.50821071 15.26231606 -86 7 C-84.125 7.3125 -84.125 7.3125 -82 8 C-79.85627389 11.21558916 -79.75995118 12.05791019 -79.76171875 15.75390625 C-79.74298706 17.15237793 -79.74298706 17.15237793 -79.72387695 18.57910156 C-79.71187256 19.56362305 -79.69986816 20.54814453 -79.6875 21.5625 C-79.44411001 29.84976252 -78.87083035 36.06943022 -74 43 C-68.8049054 51.34016412 -64.54070328 58.85279722 -66 69 C-66.90376241 71.41265271 -67.96253886 73.674682 -69.109375 75.98046875 C-70.18183985 78.41232982 -70.33932355 80.37024249 -70 83 C-68.35 83 -66.7 83 -65 83 C-58.9308474 73.98297328 -58.58391431 64.39405817 -60.58203125 53.9609375 C-61.87572358 49.38112829 -63.69461599 45.17164725 -66 41 C-60.76988783 36.28668002 -55.40869571 31.9145742 -49.6875 27.8125 C-48.91696289 27.25860596 -48.14642578 26.70471191 -47.35253906 26.1340332 C-10.21972709 -0.26894019 -10.21972709 -0.26894019 0 0 Z " fill="#FCFDFF" transform="translate(1730,1417)"/>
<path d="M0 0 C18.44132746 18.61239729 33.26689841 51.45482331 33.4375 77.5 C33.47037109 78.38558594 33.50324219 79.27117187 33.53710938 80.18359375 C33.60018863 87.99395291 31.11569385 93.38679017 26.04296875 99.26953125 C15.53809824 108.00516041 5.41790681 110.04695241 -8 111 C-11.16598141 117.54674299 -13.33797926 124.10162514 -15.1875 131.125 C-15.44724609 132.07503906 -15.70699219 133.02507812 -15.97460938 134.00390625 C-19.12259699 145.7336172 -21.67099457 158.80687176 -16.36328125 170.23046875 C-12.94811046 174.66334086 -8.66279051 175.35918206 -3.375 176.125 C2.49975519 177.42607573 2.49975519 177.42607573 4.51171875 179.734375 C5.43971918 182.21507859 5.78075183 184.35768153 6 187 C6.09539062 188.05574219 6.19078125 189.11148437 6.2890625 190.19921875 C6.58820214 196.97709321 6.20194167 202.50213239 2 208 C-5.16875399 215.3354692 -15.55146853 219.00973542 -25.6875 219.3125 C-47.07811805 218.80825466 -66.63905123 205.028161 -81 190 C-81 189.34 -81 188.68 -81 188 C-81.99 187.67 -82.98 187.34 -84 187 C-85.640625 185.4765625 -85.640625 185.4765625 -87.25 183.625 C-87.79140625 183.01914063 -88.3328125 182.41328125 -88.890625 181.7890625 C-89.25671875 181.19867187 -89.6228125 180.60828125 -90 180 C-89 177 -89 177 -86.99609375 175.9296875 C-85.72958984 175.40761719 -85.72958984 175.40761719 -84.4375 174.875 C-74.01845611 169.85897458 -69.76150359 161.51360192 -66 151 C-65.505 149.79859375 -65.01 148.5971875 -64.5 147.359375 C-62.55006417 142.15069307 -61.69500887 136.7864634 -60.8125 131.3125 C-60.6381543 130.25482422 -60.46380859 129.19714844 -60.28417969 128.10742188 C-59.11674471 120.66416716 -58.46991984 113.5389178 -59 106 C-59.71285156 105.89945313 -60.42570312 105.79890625 -61.16015625 105.6953125 C-69.05402088 103.76256435 -76.59634663 97.79036627 -81 91 C-81.86106669 88.41679994 -82.21653619 86.66678376 -82.3125 84 C-82.34988281 83.319375 -82.38726563 82.63875 -82.42578125 81.9375 C-82 80 -82 80 -80.28759766 78.38842773 C-77.55718237 76.73123758 -76.13546383 76.69780046 -72.97265625 76.84765625 C-72.01552734 76.87537109 -71.05839844 76.90308594 -70.07226562 76.93164062 C-68.06948044 77.01871824 -66.06686729 77.10984931 -64.06445312 77.20507812 C-58.1236065 77.42831224 -58.1236065 77.42831224 -52.80859375 74.99609375 C-52.21175781 74.33738281 -51.61492187 73.67867187 -51 73 C-51.55434463 68.7808214 -54.12081696 65.95653222 -56.625 62.6875 C-63.40537709 53.54698086 -69.90924736 42.68840244 -70.375 31.0625 C-70.42398437 30.22847656 -70.47296875 29.39445312 -70.5234375 28.53515625 C-69.73644449 24.72352593 -68.05768192 23.33775152 -65 21 C-62.30686546 20.36030752 -60.09055989 19.99753459 -57.375 19.8125 C-55.93474532 19.66684528 -54.49463994 19.51970673 -53.0546875 19.37109375 C-51.70325918 19.24593838 -50.35170694 19.12210941 -49 19 C-35.06257312 17.68059026 -23.25826754 10.04524151 -11.671875 2.6640625 C-10.79015625 2.11492187 -9.9084375 1.56578125 -9 1 C-8.32453125 0.57460937 -7.6490625 0.14921875 -6.953125 -0.2890625 C-4.18018852 -1.29841138 -2.7582961 -1.02953509 0 0 Z " fill="#FDFDFF" transform="translate(1382,1515)"/>
<path d="M0 0 C1.30324219 0.00644531 2.60648438 0.01289062 3.94921875 0.01953125 C6.6469207 0.15425969 8.74488725 0.4852679 11.3125 1.1875 C11.29155273 1.90703857 11.27060547 2.62657715 11.24902344 3.36791992 C10.2562495 27.92829768 10.2562495 27.92829768 21.3125 49.1875 C30.84739989 58.17812442 43.03433815 61.58617894 55.875 61.5 C56.74906494 61.49508545 57.62312988 61.4901709 58.52368164 61.48510742 C85.02437101 61.01287545 109.01418706 48.21458575 127.3203125 29.515625 C128.98409047 27.5712884 130.4896518 25.61404448 131.9921875 23.546875 C132.46889893 22.90210205 132.94561035 22.2573291 133.43676758 21.59301758 C134.3797516 20.30267737 135.29999305 18.99533696 136.1940918 17.6706543 C137.50390625 15.87109375 137.50390625 15.87109375 140.3125 13.1875 C143.72265625 13.2109375 143.72265625 13.2109375 147.3125 14.1875 C148.42367187 14.36667969 149.53484375 14.54585937 150.6796875 14.73046875 C187.46298941 21.48909327 212.67006517 43.69450315 235.3125 72.1875 C235.9940918 73.04359863 235.9940918 73.04359863 236.68945312 73.91699219 C238.15045958 75.75455684 239.60746386 77.59520491 241.0625 79.4375 C241.73442383 80.28707275 241.73442383 80.28707275 242.41992188 81.15380859 C251.3125 92.4809447 251.3125 92.4809447 251.3125 94.1875 C250.35730469 94.28546875 249.40210937 94.3834375 248.41796875 94.484375 C236.18750846 95.89886492 226.22436504 99.41202262 215.3125 105.1875 C215.09335938 104.64222656 214.87421875 104.09695313 214.6484375 103.53515625 C209.96041848 92.38681835 204.31351283 84.24186006 193.12638855 79.05187988 C185.67314544 76.17260178 177.90136838 76.62845316 170.0402832 76.66992188 C168.30633966 76.6644938 166.57240074 76.6573673 164.83847046 76.64868164 C160.15474145 76.63053094 155.471367 76.63748044 150.78763223 76.65019798 C145.87551726 76.66036373 140.96343154 76.65092286 136.05131531 76.64465332 C127.80751116 76.63738936 119.56385067 76.64693388 111.32006836 76.66601562 C101.79730597 76.68780362 92.27488593 76.68071397 82.75213176 76.65871 C74.56247448 76.64054617 66.3729201 76.63800185 58.18324918 76.64846468 C53.2976544 76.65469141 48.41222048 76.65555738 43.52663612 76.64231873 C38.93571976 76.63074576 34.3452443 76.6388123 29.75437546 76.66189575 C28.07219232 76.66717419 26.38997192 76.66568388 24.70780373 76.65684509 C22.40690374 76.6458717 20.1074061 76.65967254 17.80659485 76.67956543 C15.87786766 76.68182758 15.87786766 76.68182758 13.91017628 76.68413544 C8.23967142 77.47751733 4.63407755 79.95211229 0.4375 83.875 C-2.16398783 87.93026043 -2.8287088 91.39648707 -2.6875 96.1875 C-1.46616905 97.63681132 -1.46616905 97.63681132 2.1875 97.3125 C4.3671875 97.58203125 4.3671875 97.58203125 6.3125 98.1875 C10.30588305 103.80319491 10.00033043 110.51201753 9.3125 117.1875 C8.54624294 120.06316588 7.56561266 122.47242257 6.3125 125.1875 C4.394375 125.373125 4.394375 125.373125 2.4375 125.5625 C-1.03540936 125.87792399 -1.03540936 125.87792399 -3.6875 128.1875 C-3.5772533 134.58180872 -1.92970597 139.3331276 2.3125 144.1875 C4.59136539 145.86716062 6.73181656 146.97306073 9.3125 148.1875 C8.74982422 148.80625 8.74982422 148.80625 8.17578125 149.4375 C1.64403914 156.80833241 -2.26913513 163.59268655 -4.6875 173.1875 C-19.83935119 150.45972322 -23.16166051 119.35643433 -18.55981445 92.99511719 C-15.76492 79.32387108 -11.65045073 65.86012784 -4.7890625 53.66796875 C-3.58688894 50.96094674 -3.46670588 49.11565057 -3.6875 46.1875 C-5.3375 46.1875 -6.9875 46.1875 -8.6875 46.1875 C-14.41224751 56.70021815 -18.63690351 67.2553801 -22.2421875 78.66796875 C-22.62612671 79.85652466 -22.62612671 79.85652466 -23.01782227 81.0690918 C-23.55677742 82.773982 -24.04624453 84.49447538 -24.51953125 86.21875 C-25.6875 88.1875 -25.6875 88.1875 -28.33203125 89.11328125 C-29.37746094 89.24089844 -30.42289063 89.36851563 -31.5 89.5 C-32.53769531 89.64050781 -33.57539062 89.78101563 -34.64453125 89.92578125 C-37.34731867 90.15824179 -39.97706679 90.24261047 -42.6875 90.1875 C-52.70775355 70.08923928 -57.90801396 50.60511169 -58 28.0625 C-58.00555908 26.90000732 -58.01111816 25.73751465 -58.0168457 24.53979492 C-57.96663945 18.63390905 -57.45157009 13.80671504 -55.6875 8.1875 C-51.40587826 7.36424525 -47.1232133 6.54669684 -42.83959961 5.73388672 C-41.38977378 5.45801863 -39.9402174 5.18072968 -38.4909668 4.90185547 C-12.288764 -0.13667988 -12.288764 -0.13667988 0 0 Z " fill="#FDFDFF" transform="translate(1904.6875,1705.8125)"/>
<path d="M0 0 C3.61912339 4.28490552 6.54318477 8.87629283 9.5 13.625 C10.57283584 15.33598819 11.64575481 17.04692424 12.71875 18.7578125 C13.26402344 19.62954102 13.80929687 20.50126953 14.37109375 21.39941406 C16.90222721 25.4404263 19.45128136 29.47006464 22 33.5 C25.12616362 38.44364048 28.24660312 43.39066304 31.3515625 48.34765625 C31.89941406 49.22035156 32.44726562 50.09304688 33.01171875 50.9921875 C34.06595931 52.67182501 35.11813337 54.35276183 36.16796875 56.03515625 C36.64105469 56.78796875 37.11414062 57.54078125 37.6015625 58.31640625 C38.01744629 58.98099854 38.43333008 59.64559082 38.86181641 60.33032227 C40.92936958 63.36335448 41.7716819 63.95341492 45.484375 64.7109375 C47.61472797 65.05402805 49.74670137 65.37452877 51.8828125 65.6796875 C56.78379549 66.48133527 59.966522 67.93552572 64 71 C64.61875 71.4125 65.2375 71.825 65.875 72.25 C67.81165504 75.26257451 67.37415667 78.57715934 67 82 C66.4375 84.3125 66.4375 84.3125 65 86 C53.8615847 91.56920765 43.91602586 90.06274327 32 88 C31.74404053 88.5885376 31.48808105 89.1770752 31.22436523 89.78344727 C29.89407349 92.19176605 28.40902631 93.59036856 26.41015625 95.46484375 C21.72105173 100.72807469 22.12555181 105.79938495 22.4375 112.5625 C22.48366455 114.30176758 22.48366455 114.30176758 22.53076172 116.07617188 C22.63873737 119.38866089 22.80377555 122.69168753 23 126 C23.04302246 126.78487793 23.08604492 127.56975586 23.13037109 128.37841797 C24.02285245 142.13059345 28.17796008 157.30333958 37.4375 167.75 C46.35368799 175.57884799 61.70660258 174.45539454 73 175 C57.68830788 196.08863091 36.76962666 212.04118991 10.5625 216.59765625 C-3.04196431 218.13412536 -17.29655925 217.80895108 -29 210 C-35.39973253 204.71592965 -38.61868007 198.11211522 -40 190 C-40.42788112 183.00513108 -40.25571988 175.99885643 -40 169 C-36.05928408 167.68932136 -34.07484136 168.7524893 -30.28125 170.28125 C-24.73590874 172.02841232 -19.70958975 171.82426649 -14.5 169.3125 C-11.11350605 166.1799931 -10.15943669 163.58401384 -9.69921875 159.01171875 C-9.64358808 143.23115199 -12.87333082 126.25333836 -20 112 C-22.4792048 111.34365216 -24.93128964 110.77930214 -27.4375 110.25 C-36.63976388 108.11343174 -44.80546992 104.73211852 -50.75 97.03125 C-55.69105229 89.00204002 -56.58243807 81.27047254 -56 72 C-55.46890625 72.40992188 -54.9378125 72.81984375 -54.390625 73.2421875 C-53.68421875 73.78101563 -52.9778125 74.31984375 -52.25 74.875 C-51.55390625 75.40867187 -50.8578125 75.94234375 -50.140625 76.4921875 C-45.48141691 79.77403845 -42.5380571 80.23218624 -36.75 80.125 C-35.48671875 80.10695313 -34.2234375 80.08890625 -32.921875 80.0703125 C-31.95765625 80.04710937 -30.9934375 80.02390625 -30 80 C-30 78.68 -30 77.36 -30 76 C-30.7734375 75.92523437 -31.546875 75.85046875 -32.34375 75.7734375 C-41.28630123 74.64455108 -46.01013531 72.0455696 -52.23828125 65.73046875 C-54.53400875 62.17234564 -54.21022828 60.27955348 -53.6875 56.125 C-53.16055808 51.10851296 -52.94556883 46.92067878 -54 42 C-52.783125 41.5875 -51.56625 41.175 -50.3125 40.75 C-49.49910156 40.46769531 -48.68570312 40.18539063 -47.84765625 39.89453125 C-45 39 -45 39 -41.68359375 38.26171875 C-35.24612347 36.90777448 -35.24612347 36.90777448 -30.375 32.87109375 C-29.61090314 31.17575385 -28.89599423 29.45755756 -28.2265625 27.72265625 C-25.93854414 22.64383842 -21.84718152 18.94736854 -18 15 C-17.4225 14.37222656 -16.845 13.74445313 -16.25 13.09765625 C-11.41183384 7.96873491 -5.77029452 4.01729365 0 0 Z " fill="#FDFDFF" transform="translate(1963,1543)"/>
<path d="M0 0 C0.66 0 1.32 0 2 0 C14.51724954 30.5945576 26.95313388 61.22091505 39.31771851 91.87747192 C44.27593084 104.16780362 49.25708137 116.44882721 54.24308777 128.72790527 C54.78032682 130.05247828 55.31667419 131.37741341 55.852005 132.70275879 C56.97988509 135.49493602 58.11819076 138.28130388 59.28466797 141.05761719 C59.65350098 141.94352539 60.02233398 142.82943359 60.40234375 143.7421875 C60.71550537 144.48065918 61.02866699 145.21913086 61.35131836 145.97998047 C62 148 62 148 62 152 C34.28 152 6.56 152 -22 152 C-26.23179411 141.11824373 -30.43833395 130.25006051 -34.4609375 119.29296875 C-34.94174086 117.98544301 -35.42258702 116.67793301 -35.9034729 115.37043762 C-36.89440038 112.67473656 -37.88392827 109.97852674 -38.87255859 107.28198242 C-40.13636436 103.83564244 -41.40521912 100.39118365 -42.6752224 96.94712353 C-43.66257505 94.26714664 -44.64659874 91.58595653 -45.62968826 88.90441322 C-46.32153991 87.01969027 -47.0167376 85.13619667 -47.71200562 83.25273132 C-48.12979279 82.10996231 -48.54757996 80.9671933 -48.97802734 79.78979492 C-49.34552094 78.78929611 -49.71301453 77.7887973 -50.09164429 76.75798035 C-52.38564959 69.79284384 -52.38564959 69.79284384 -51.08227539 67.11328125 C-50.59235107 66.51902344 -50.10242676 65.92476562 -49.59765625 65.3125 C-49.04529297 64.62486572 -48.49292969 63.93723145 -47.92382812 63.22875977 C-47.30958984 62.49326904 -46.69535156 61.75777832 -46.0625 61 C-44.76040025 59.38517686 -43.45967246 57.76924671 -42.16015625 56.15234375 C-41.4758252 55.30913574 -40.79149414 54.46592773 -40.08642578 53.59716797 C-36.64471586 49.31295195 -33.32259006 44.93934614 -30 40.5625 C-29.33427979 39.68803223 -28.66855957 38.81356445 -27.98266602 37.91259766 C-20.32786471 27.83672997 -12.7314723 17.70125761 -5.421875 7.37109375 C-4.70515625 6.36175781 -3.9884375 5.35242187 -3.25 4.3125 C-2.65703125 3.46300781 -2.0640625 2.61351562 -1.453125 1.73828125 C-0.73382812 0.87783203 -0.73382812 0.87783203 0 0 Z " fill="#FEFEFF" transform="translate(1502,1815)"/>
<path d="M0 0 C11.53987423 11.53987423 15.73969348 26.0655223 16 42 C15.71444587 53.94568091 9.34429746 63.19632753 3.109375 72.9609375 C-0.17106828 78.13639413 -1.889431 81.80813584 -2 88 C-1.67 88.66 -1.34 89.32 -1 90 C-0.63428583 92.61514657 -0.34958189 95.18535981 -0.125 97.8125 C-0.03992187 98.52470703 0.04515625 99.23691406 0.1328125 99.97070312 C0.45435356 103.92054274 0.23277598 105.68766768 -2.16015625 108.8984375 C-4.9523981 110.96477329 -6.97217377 111.96628402 -10.3125 112.8125 C-11.63701172 113.16248047 -11.63701172 113.16248047 -12.98828125 113.51953125 C-13.65214844 113.67808594 -14.31601563 113.83664062 -15 114 C-15.18755859 115.15242188 -15.18755859 115.15242188 -15.37890625 116.328125 C-16.16299151 119.70117101 -17.68049647 121.46963251 -20 124 C-24.43993173 126.21996586 -30.1804299 125.52119288 -35 125 C-37.95615946 123.68796606 -38.87265065 122.58731678 -41 120 C-41.268125 119.113125 -41.53625 118.22625 -41.8125 117.3125 C-42.4003125 116.1678125 -42.4003125 116.1678125 -43 115 C-45.23654452 114.30024944 -47.38582822 113.93617816 -49.7109375 113.65234375 C-52.90399419 112.74237708 -54.06194138 111.70985188 -56 109 C-56.50684951 106.06668128 -56.78453772 103.50503706 -56.875 100.5625 C-56.92140625 99.81162109 -56.9678125 99.06074219 -57.015625 98.28710938 C-57.17379349 94.82869451 -57.25799403 92.56373371 -55.796875 89.37109375 C-54.66367984 86.85697505 -54.66367984 86.85697505 -56.2734375 83.90625 C-56.95550329 82.75965212 -57.65738409 81.62469011 -58.375 80.5 C-58.74278564 79.88979004 -59.11057129 79.27958008 -59.48950195 78.65087891 C-61.33097843 75.61218799 -63.24165223 72.61764361 -65.14453125 69.6171875 C-74.22520491 55.20617576 -79.53332393 41.76385548 -76.38671875 24.66796875 C-72.85822952 12.80789261 -64.80095382 2.27666504 -53.921875 -3.6875 C-35.76043407 -12.4725691 -16.34293385 -13.16858555 0 0 Z " fill="#506FFF" transform="translate(1713,1267)"/>
<path d="M0 0 C0.74636719 0.75152344 1.49273438 1.50304688 2.26171875 2.27734375 C10.67346143 10.6410879 16.82654567 15.7391141 28.875 16.875 C35.04382241 17.46602069 39.10058346 18.84288006 44.19921875 22.34765625 C65.81087047 35.09762651 94.68391549 35.12597865 118.94335938 35.71862793 C139.19003281 36.24377944 158.9795558 37.02322207 178.8203125 41.32324219 C182.01599501 42.00340434 185.21912632 42.57117088 188.4375 43.1328125 C202.40080804 45.84211107 211.54846857 51.34728537 220 63 C220 63.33 220 63.66 220 64 C143.11 64 66.22 64 -13 64 C-9.535 55.09 -9.535 55.09 -6 46 C-2.29023732 34.74278912 -0.69222525 24.23129383 -0.375 12.375 C-0.33632812 11.18003906 -0.29765625 9.98507812 -0.2578125 8.75390625 C-0.16444214 5.83608264 -0.07866422 2.91825079 0 0 Z " fill="#FDFEFF" transform="translate(1904,1903)"/>
<path d="M0 0 C19.04547981 -0.09348908 38.09091297 -0.16400161 57.13657475 -0.20724869 C65.98004393 -0.22786383 74.82337044 -0.25596433 83.66674805 -0.30175781 C91.37567839 -0.34165774 99.08450539 -0.36744044 106.79353613 -0.37635398 C110.87451722 -0.38156341 114.9552027 -0.3937854 119.03608894 -0.42292023 C122.87991371 -0.45013937 126.72332205 -0.458432 130.56723404 -0.45243073 C131.97530444 -0.45352807 133.38338926 -0.46144356 134.79137611 -0.4768219 C148.14051974 -0.61543042 148.14051974 -0.61543042 154 4 C158.00446851 8.92696183 158.58362122 13.41028362 158.375 19.625 C158.37306641 20.73101563 158.37306641 20.73101563 158.37109375 21.859375 C158.28362501 27.28243692 157.62267715 31.11560072 154.0625 35.25 C149.91559013 38.76859019 145.29994901 38.14154208 140.1496582 38.12939453 C139.24121155 38.13114685 138.33276489 38.13289917 137.39678955 38.13470459 C134.36476773 38.13913274 131.33280378 38.13617088 128.30078125 38.1328125 C126.15561411 38.13348785 124.01044704 38.1344598 121.86528015 38.13571167 C117.32969446 38.13719198 112.79412834 38.13503288 108.25854492 38.13037109 C102.60171922 38.12482538 96.94494216 38.12794121 91.28811836 38.13382339 C60.84676622 38.16042315 30.43156718 37.76769202 0 37 C0.21194 36.31968216 0.42388 35.63936432 0.64224243 34.93843079 C0.91708466 34.04262802 1.19192688 33.14682526 1.47509766 32.22387695 C1.74891266 31.33730911 2.02272766 30.45074127 2.30484009 29.53730774 C3.17384227 26.36548219 3.39883138 23.47225816 3.375 20.1875 C3.38273437 19.12917969 3.39046875 18.07085938 3.3984375 16.98046875 C3.18564587 13.3063744 2.31883704 9.82684912 1.47509766 6.2512207 C1.20025543 5.08057571 0.92541321 3.90993073 0.64224243 2.70381165 C0.32433243 1.36542488 0.32433243 1.36542488 0 0 Z " fill="#FEFEFF" transform="translate(1630,1918)"/>
<path d="M0 0 C15.28159559 -0.0935031 30.56317798 -0.16400845 45.8449955 -0.20724869 C52.9408691 -0.22786092 60.03656481 -0.25595559 67.13232422 -0.30175781 C73.97931988 -0.34593318 80.82613054 -0.36913385 87.67325974 -0.37950897 C90.28636968 -0.38690336 92.89946944 -0.40134268 95.51250076 -0.42292023 C99.1708289 -0.45192977 102.82839187 -0.45595684 106.48681641 -0.45410156 C107.5686319 -0.46848267 108.65044739 -0.48286377 109.76504517 -0.49768066 C115.84645292 -0.46427844 119.36275457 -0.04758538 124 4 C126.93097803 7.03631973 127.43163816 9.18964491 127.4375 13.375 C127.28487197 18.35200082 126.52631399 21.28809054 123 25 C117.39553605 28.77258608 111.9924436 28.40543804 105.48681641 28.34057617 C104.33501892 28.34101425 103.18322144 28.34145233 101.996521 28.34190369 C98.19802772 28.33981745 94.39997846 28.31649329 90.6015625 28.29296875 C87.9645512 28.28737223 85.32753678 28.2831024 82.69052124 28.28010559 C76.46451781 28.27079631 70.23867317 28.24619783 64.01273954 28.21605712 C56.92206853 28.18247817 49.83138978 28.16601835 42.740659 28.15097082 C28.16035757 28.11964716 13.58018101 28.06690853 -1 28 C-0.125 22.25 -0.125 22.25 1 20 C1.09855117 17.55071345 1.13900583 15.13618624 1.125 12.6875 C1.12757812 11.37136719 1.13015625 10.05523438 1.1328125 8.69921875 C1.0223921 5.62368598 0.64724632 2.98652434 0 0 Z " fill="#FEFEFF" transform="translate(1920,1805)"/>
<path d="M0 0 C1.38886406 4.16659219 0.14894888 7.46775997 -0.87890625 11.6015625 C-1.08628418 12.46300873 -1.29366211 13.32445496 -1.50732422 14.21200562 C-2.18474266 17.01825116 -2.87347392 19.82158415 -3.5625 22.625 C-4.02734948 24.54018557 -4.49145976 26.45555071 -4.95483398 28.37109375 C-5.87363082 32.16532727 -6.79649506 35.95853422 -7.72265625 39.75097656 C-8.82107502 44.25469692 -9.90039783 48.76249094 -10.96875 53.2734375 C-11.24388428 54.43407715 -11.51901855 55.5947168 -11.80249023 56.79052734 C-12.29770398 58.88178333 -12.7920506 60.97324491 -13.28540039 63.06494141 C-13.50188232 63.97163574 -13.71836426 64.87833008 -13.94140625 65.8125 C-14.12388916 66.58207031 -14.30637207 67.35164063 -14.49438477 68.14453125 C-15 70 -15 70 -16 72 C-31.84 72 -47.68 72 -64 72 C-60.42547992 69.14038393 -56.84048365 66.37316967 -53.16015625 63.66015625 C-48.00973145 59.70187317 -43.85229633 55.89359149 -39.9375 50.6875 C-38.98053068 49.4416594 -38.02213787 48.19691125 -37.0625 46.953125 C-36.56492187 46.30666016 -36.06734375 45.66019531 -35.5546875 44.99414062 C-32.9054101 41.59600969 -30.16801331 38.27042102 -27.4375 34.9375 C-22.68744935 29.12089834 -18.05462258 23.23216973 -13.5 17.26171875 C-9.06658309 11.45630996 -4.52310935 5.73557782 0 0 Z " fill="#FCFDFF" transform="translate(1442,1895)"/>
<path d="M0 0 C2.33953493 2.33953493 2.93335842 4.12589916 4.06298828 7.22827148 C4.66338425 8.86523232 4.66338425 8.86523232 5.27590942 10.53526306 C5.70306244 11.71858719 6.13021545 12.90191132 6.5703125 14.12109375 C7.0114035 15.3319313 7.45249451 16.54276886 7.9069519 17.79029846 C8.84018202 20.35377714 9.76941155 22.91866065 10.69580078 25.48461914 C11.88355918 28.77368672 13.08060431 32.05928044 14.28059578 35.34390163 C15.42363729 38.47622835 16.55918565 41.61125224 17.6953125 44.74609375 C18.12651398 45.92739365 18.55771545 47.10869354 19.00198364 48.32579041 C19.3959433 49.42024979 19.78990295 50.51470917 20.19580078 51.64233398 C20.71969894 53.08889626 20.71969894 53.08889626 21.25418091 54.56468201 C22 57 22 57 22 60 C9.79 60 -2.42 60 -15 60 C-13.76527328 53.20900304 -12.51232295 46.73071367 -10.6875 40.125 C-8.54869277 32.21862271 -6.60435714 24.28008207 -4.7878418 16.29345703 C-3.50054917 10.74006685 -1.89856153 5.3752113 0 0 Z " fill="#FBFCFF" transform="translate(1449,1907)"/>
<path d="M0 0 C4.6029598 1.72497507 8.93255824 3.9095871 13.3125 6.125 C14.05306641 6.49753906 14.79363281 6.87007812 15.55664062 7.25390625 C17.37201217 8.16744806 19.18613282 9.08347487 21 10 C20.17181476 22.42277857 16.3386134 35.45501574 6.875 44 C3.08117858 47.18858143 0.25433748 48.13412083 -4.6875 48.0625 C-5.44909424 48.0514624 -6.21068848 48.0404248 -6.99536133 48.02905273 C-7.65689209 48.01946533 -8.31842285 48.00987793 -9 48 C-8.47724964 39.62383723 -7.09812109 31.47710031 -5.47094727 23.25512695 C-5.05996807 21.17468293 -4.65931156 19.09243237 -4.25976562 17.00976562 C-3.12997713 11.21239513 -1.97684591 5.58183892 0 0 Z " fill="#FCFCFF" transform="translate(1292,1637)"/>
<path d="M0 0 C21.78 0 43.56 0 66 0 C65.67 2.31 65.34 4.62 65 7 C58.0990315 7.07665296 51.19817455 7.12885065 44.296875 7.16479492 C41.95373431 7.17979438 39.61062127 7.20020059 37.26757812 7.22631836 C33.88144058 7.26309285 30.49567722 7.27981537 27.109375 7.29296875 C26.07762146 7.30845261 25.04586792 7.32393646 23.98284912 7.33988953 C16.83546776 7.34150886 9.66421464 6.7717783 3 4 C2.01 2.68 1.02 1.36 0 0 Z " fill="#F5F7FF" transform="translate(2034,1870)"/>
<path d="M0 0 C-0.43980866 4.72794312 -1.56522029 8.86199789 -3.0625 13.375 C-5.66293437 21.62074099 -5.77322943 27.85363854 -3 36 C-7.29 34.68 -11.58 33.36 -16 32 C-17.04752517 11.93407337 -17.04752517 11.93407337 -9.5078125 3.2890625 C-6.46293433 0.43350318 -4.14138495 -0.6090272 0 0 Z " fill="#F9FAFF" transform="translate(1767,1540)"/>
<path d="M0 0 C2.87109375 2.1875 2.87109375 2.1875 5.4375 5 C6.30246094 5.928125 7.16742187 6.85625 8.05859375 7.8125 C9.01958984 8.8953125 9.01958984 8.8953125 10 10 C2.0760092 16.30121273 -7.40514104 15.22487951 -17 15 C-17.11031801 10.28877206 -17.05111397 7.74007519 -14 4 C-9.11487175 0.52404336 -6.15075604 -0.71303456 0 0 Z " fill="#FCFCFF" transform="translate(1990,1870)"/>
<path d="M0 0 C8.77237125 1.44223731 17.27435498 6.18618672 22.75390625 13.24609375 C24.77144963 16.54495416 25.3046875 18.45820372 25.3046875 22.37890625 C24.6446875 22.37890625 23.9846875 22.37890625 23.3046875 22.37890625 C22.5828125 21.30640625 21.8609375 20.23390625 21.1171875 19.12890625 C18.35123965 15.09013284 15.69932876 13.49775114 11.3046875 11.37890625 C10.57894531 11.01667969 9.85320312 10.65445312 9.10546875 10.28125 C5.38806011 9.08359115 1.84982613 9.1642739 -2.0078125 9.25390625 C-3.11866211 9.26744141 -3.11866211 9.26744141 -4.25195312 9.28125 C-6.06654717 9.30466412 -7.88097321 9.3405301 -9.6953125 9.37890625 C-8.50742964 2.92581286 -7.35504887 -0.41759435 0 0 Z " fill="#F6F8FF" transform="translate(1742.6953125,1592.62109375)"/>
<path d="M0 0 C-0.20920614 5.9623751 -1.17365712 9.1911769 -5.33203125 13.52734375 C-9.95549669 17.60941979 -14.98680319 18.84995862 -21 19 C-23.38824525 18.80587042 -25.63939601 18.44261325 -28 18 C-28.5625 16.0625 -28.5625 16.0625 -29 14 C-27.49199993 12.49199993 -26.03914796 12.81367098 -23.9375 12.6875 C-16.60534361 11.89734686 -11.96927481 9.42317078 -7.25 3.75 C-6.71890625 3.04359375 -6.1878125 2.3371875 -5.640625 1.609375 C-4 0 -4 0 0 0 Z " fill="#5875FF" transform="translate(1405,1586)"/>
<path d="M0 0 C7.0916871 0.12641153 11.79384443 4.59284467 16.75 9.25 C21.21862624 13.90298999 23.4375 17.76438545 23.4375 24.375 C22.7775 24.375 22.1175 24.375 21.4375 24.375 C20.90125 23.50875 20.365 22.6425 19.8125 21.75 C14.10514051 12.78733177 3.00363272 8.79147597 -6.5625 5.375 C-4.1743068 0.43940072 -4.1743068 0.43940072 0 0 Z " fill="#F5F7FF" transform="translate(1750.5625,1579.625)"/>
<path d="M0 0 C2.5 0.125 2.5 0.125 3.5 1.125 C3.75380234 5.59831958 3.68522721 10.0828346 3.6875 14.5625 C3.69974609 15.82900391 3.71199219 17.09550781 3.72460938 18.40039062 C3.72750977 20.21120117 3.72750977 20.21120117 3.73046875 22.05859375 C3.73457764 23.17290771 3.73868652 24.28722168 3.74291992 25.43530273 C3.5 28.125 3.5 28.125 1.5 30.125 C-1.125 29.75 -1.125 29.75 -3.5 29.125 C-3.52465881 25.15569011 -3.54284023 21.18640966 -3.55493164 17.21704102 C-3.55997057 15.86579614 -3.56680177 14.51455674 -3.57543945 13.16333008 C-3.58752419 11.22479566 -3.59269828 9.286222 -3.59765625 7.34765625 C-3.60289307 6.17984619 -3.60812988 5.01203613 -3.61352539 3.80883789 C-3.45973017 0.17298651 -3.45973017 0.17298651 0 0 Z " fill="#506FFF" transform="translate(1685.5,1216.875)"/>
<path d="M0 0 C3.73487777 0.4979837 5.81237635 0.87491756 9 3 C16.20438447 5.00121791 23.6909234 3.82355793 31 3 C30.875 5.3125 30.875 5.3125 30 8 C24.23838165 12.1365465 17.13022631 12.47749215 10.3125 11.4375 C6.27327788 9.68463002 2.75174274 7.49613515 0 4 C0 2.68 0 1.36 0 0 Z " fill="#5876FF" transform="translate(1461,1371)"/>
<path d="M0 0 C6.19489692 0.10680857 11.24744885 1.65916374 16.9375 3.9375 C17.60023926 4.20248291 18.26297852 4.46746582 18.94580078 4.74047852 C21.74925796 5.90515272 23.83323711 6.83323711 26 9 C25.625 11.625 25.625 11.625 25 14 C18.86199199 13.47050101 13.75149854 12.08115023 8.0625 9.75 C7.29615234 9.46253906 6.52980469 9.17507813 5.74023438 8.87890625 C3.68273142 8.04424163 1.83960382 7.24377369 0 6 C-1.06640625 3.328125 -1.06640625 3.328125 -1 1 C-0.67 0.67 -0.34 0.34 0 0 Z " fill="#506FFF" transform="translate(1600,1273)"/>
<path d="M0 0 C0.33 1.65 0.66 3.3 1 5 C-3.14721134 7.69730738 -7.39233656 9.46600213 -12 11.1875 C-12.69867187 11.46013672 -13.39734375 11.73277344 -14.1171875 12.01367188 C-17.85950927 13.42233828 -20.98949169 14.35248608 -25 14 C-25.33 12.35 -25.66 10.7 -26 9 C-21.80100078 6.00437251 -17.9016536 3.99137694 -13 2.25 C-11.824375 1.82203125 -10.64875 1.3940625 -9.4375 0.953125 C-6.10224609 0.02835005 -3.43786832 -0.18866351 0 0 Z " fill="#506FFF" transform="translate(1764,1272)"/>
<path d="M0 0 C4.8941397 0.27336636 7.79370356 2.95415855 11.3125 6.0625 C11.86228516 6.53494141 12.41207031 7.00738281 12.97851562 7.49414062 C14.3262696 8.654381 15.66415117 9.82607224 17 11 C16.67 12.65 16.34 14.3 16 16 C15.01 16.33 14.02 16.66 13 17 C10.94921875 15.9609375 10.94921875 15.9609375 8.6875 14.375 C7.89859375 13.82328125 7.1096875 13.2715625 6.296875 12.703125 C3.42464498 10.57337621 0.69503434 8.34951712 -2 6 C-1.125 1.125 -1.125 1.125 0 0 Z " fill="#506FFF" transform="translate(1626,1240)"/>
<path d="M0 0 C0.5775 0.37125 1.155 0.7425 1.75 1.125 C1.56167605 4.98912841 0.7879367 6.08828024 -2.05078125 8.8359375 C-3.21064216 9.73790459 -4.38170277 10.6256203 -5.5625 11.5 C-6.14451172 11.96277344 -6.72652344 12.42554688 -7.32617188 12.90234375 C-11.64311814 16.17794284 -11.64311814 16.17794284 -14.66796875 15.9140625 C-15.19003906 15.65367188 -15.71210937 15.39328125 -16.25 15.125 C-16.58 13.475 -16.91 11.825 -17.25 10.125 C-15.50395451 8.6619343 -13.75300547 7.2047192 -12 5.75 C-11.02546875 4.93789062 -10.0509375 4.12578125 -9.046875 3.2890625 C-3.19180459 -1.24125734 -3.19180459 -1.24125734 0 0 Z " fill="#506FFF" transform="translate(1738.25,1239.875)"/>
<path d="M0 0 C0.66 0.66 1.32 1.32 2 2 C1.625 4.625 1.625 4.625 1 7 C-1.58157368 7.53132389 -4.16461756 8.05034379 -6.75 8.5625 C-7.47960938 8.71396484 -8.20921875 8.86542969 -8.9609375 9.02148438 C-12.66557073 9.74557178 -15.39322322 10.09817231 -19 9 C-19.33 7.35 -19.66 5.7 -20 4 C-16.79252626 1.86168417 -14.88370763 1.46552015 -11.125 0.875 C-10.09632812 0.70742187 -9.06765625 0.53984375 -8.0078125 0.3671875 C-5.26829793 0.03275325 -2.75107626 -0.22046953 0 0 Z " fill="#506FFF" transform="translate(1757,1316)"/>
<path d="M0 0 C6.86572212 0.12935418 13.5033811 0.73373759 20 3 C21.125 6.75 21.125 6.75 20 9 C13.1217616 9.22551601 6.70153052 8.63948157 0 7 C-1 6 -1 6 -1.125 3.5 C-1 1 -1 1 0 0 Z " fill="#506FFF" transform="translate(1609,1318)"/>
<path d="M0 0 C5.10329727 -0.36308044 8.87463833 -0.58277658 13.5 1.8125 C16 4 16 4 18 7 C18.07905064 9.33199388 18.08798769 11.66832622 18 14 C13.46452571 14 13.2252768 13.67578145 10.1875 10.6875 C6.61781108 7.37900783 3.56809541 5.61786713 -1 4 C-0.67 2.68 -0.34 1.36 0 0 Z " fill="#5A77FF" transform="translate(1955,1567)"/>
<path d="M0 0 C0.78503906 0.00644531 1.57007813 0.01289062 2.37890625 0.01953125 C4.4375 0.1875 4.4375 0.1875 6.4375 1.1875 C6.4375 2.1775 6.4375 3.1675 6.4375 4.1875 C5.77363281 4.49042969 5.10976562 4.79335937 4.42578125 5.10546875 C-0.78871002 7.57949746 -4.79495597 9.79203197 -8.5625 14.1875 C-9.5525 13.8575 -10.5425 13.5275 -11.5625 13.1875 C-11.91348791 9.41437995 -11.86890454 7.65238965 -9.75 4.4375 C-6.52527953 1.12064466 -4.55828647 -0.08260486 0 0 Z " fill="#5876FF" transform="translate(1384.5625,1533.8125)"/>
<path d="M0 0 C3.17473242 1.5152132 5.75099783 3.27752369 8 6 C8 6.66 8 7.32 8 8 C1.07 8 -5.86 8 -13 8 C-12 3 -12 3 -9.875 1.1875 C-6.29668613 -0.29049921 -3.84423208 -0.41188201 0 0 Z " fill="#5A77FF" transform="translate(1503,1320)"/>
<path d="M0 0 C0.91007812 0.00902344 1.82015625 0.01804687 2.7578125 0.02734375 C3.45648437 0.03894531 4.15515625 0.05054688 4.875 0.0625 C4.875 1.3825 4.875 2.7025 4.875 4.0625 C4.35550781 4.29324219 3.83601563 4.52398438 3.30078125 4.76171875 C-0.37627078 6.48130131 -2.96386053 7.90136053 -5.875 10.8125 C-6.6175 11.555 -7.36 12.2975 -8.125 13.0625 C-9.445 13.0625 -10.765 13.0625 -12.125 13.0625 C-12.47251969 10.14333462 -12.65780018 7.93054524 -11.08203125 5.36328125 C-7.42183589 0.93025871 -5.59427485 -0.07172147 0 0 Z " fill="#5674FF" transform="translate(1352.125,1550.9375)"/>
<path d="M0 0 C2.25 0.4375 2.25 0.4375 3.25 1.4375 C3.67738971 8.98805147 3.67738971 8.98805147 1.25 12.4375 C-1.75 14.4375 -1.75 14.4375 -4.4375 14.0625 C-5.200625 13.85625 -5.96375 13.65 -6.75 13.4375 C-8.28333722 7.54004915 -8.28333722 7.54004915 -6.87890625 4.63671875 C-4.81330833 1.94050215 -3.39020038 0.53935006 0 0 Z " fill="#5875FF" transform="translate(1955.75,1580.5625)"/>
<path d="M0 0 C2.9375 0.0625 2.9375 0.0625 6 1 C8.16890991 3.60269189 8.92184047 5.32782807 9.3125 8.6875 C9 11 9 11 7 13 C4.32153683 12.79396437 2.5147975 12.33094125 0.25 10.875 C-1.65509008 8.01736487 -1.8156108 5.38046873 -2 2 C-1.34 1.34 -0.68 0.68 0 0 Z " fill="#5977FF" transform="translate(1355,1564)"/>
<path d="M0 0 C3.05806198 0.24795097 4.79080517 0.85299823 7.3125 2.625 C9.60738821 5.85484266 9.36520205 8.12885832 9 12 C8 13 8 13 5.6875 13.3125 C3 13 3 13 0.6875 11.5 C-1.78297793 7.8400327 -1.35771597 5.36413487 -1 1 C-0.67 0.67 -0.34 0.34 0 0 Z " fill="#5876FF" transform="translate(1386,1547)"/>
<path d="M0 0 C1.9375 0.8125 1.9375 0.8125 3.9375 2.8125 C4.45485644 7.46870796 3.62112626 10.01069614 0.9375 13.8125 C-3.9375 12.9375 -3.9375 12.9375 -5.0625 11.8125 C-5.265625 9.8515625 -5.265625 9.8515625 -5.3125 7.4375 C-5.33828125 6.64601563 -5.3640625 5.85453125 -5.390625 5.0390625 C-4.90337514 1.73272418 -3.49424962 -0.31765906 0 0 Z " fill="#5876FF" transform="translate(1500.0625,1334.1875)"/>
<path d="M0 0 C1.2065625 0.0309375 1.2065625 0.0309375 2.4375 0.0625 C2.80347111 5.55206661 2.80347111 5.55206661 1.25 7.71875 C-1.11524362 9.47229269 -2.83204861 9.56052264 -5.75 9.75 C-6.65105469 9.81574219 -7.55210938 9.88148437 -8.48046875 9.94921875 C-9.51107422 10.00529297 -9.51107422 10.00529297 -10.5625 10.0625 C-10.8925 8.4125 -11.2225 6.7625 -11.5625 5.0625 C-10.99660156 4.78535156 -10.43070313 4.50820312 -9.84765625 4.22265625 C-9.11417969 3.86042969 -8.38070313 3.49820312 -7.625 3.125 C-6.52865234 2.58552734 -6.52865234 2.58552734 -5.41015625 2.03515625 C-1.6191968 0.0394926 -1.6191968 0.0394926 0 0 Z " fill="#5876FF" transform="translate(1387.5625,1568.9375)"/>
<path d="M0 0 C2.12534659 0.14069196 4.25027529 0.28770921 6.375 0.4375 C8.15003906 0.55931641 8.15003906 0.55931641 9.9609375 0.68359375 C13 1 13 1 15 2 C14.625 4.4375 14.625 4.4375 14 7 C10.78707942 8.60646029 7.4741348 8.62441428 4 8 C1 5.5 1 5.5 -1 3 C-0.67 2.01 -0.34 1.02 0 0 Z " fill="#5A78FF" transform="translate(1475,1350)"/>
<path d="M0 0 C6.27 0 12.54 0 19 0 C19 0.33 19 0.66 19 1 C15.04 1 11.08 1 7 1 C7 1.66 7 2.32 7 3 C4.69 2.34 2.38 1.68 0 1 C0 0.67 0 0.34 0 0 Z " fill="#E0E5FF" transform="translate(1958,1921)"/>
</svg>
